<svg width="40" height="40" viewBox="0 0 40 40" fill="none" xmlns="http://www.w3.org/2000/svg">
<path d="M9.08203 31.166C9.40749 31.1661 9.70782 31.2991 9.9248 31.54L11.3604 33.1523C11.6358 33.4598 12.0285 33.6338 12.4375 33.6338H17.6963L34.6914 33.6426C31.0187 37.5485 25.8099 39.9999 20.0088 40C14.2074 40 8.98964 37.5487 5.3252 33.6426H5.40918C6.01833 33.6425 6.6023 33.3846 7.00293 32.9277L8.23828 31.54C8.44696 31.3073 8.75649 31.166 9.08203 31.166ZM16.9619 21.2344C17.2874 21.2344 17.5877 21.3674 17.8047 21.6084L19.2402 23.2041C19.5157 23.5116 19.9084 23.6855 20.3174 23.6855H39.7412C39.4073 25.4391 38.8563 27.1104 38.0967 28.6729H17.8633C17.4543 28.6729 17.0616 28.4979 16.7861 28.1904L15.3506 26.5781C15.142 26.3455 14.8333 26.2042 14.5078 26.2041H14.4404C14.1319 26.2042 13.84 26.3286 13.623 26.5527L11.9199 28.3232C11.6945 28.5559 11.3939 28.6895 11.0684 28.6895L1.91992 28.6973C1.16034 27.1349 0.609281 25.4645 0.275391 23.7109H13.2891C13.8983 23.7109 14.4822 23.453 14.8828 22.9961L16.1182 21.6084C16.3268 21.3757 16.6364 21.2344 16.9619 21.2344ZM24.0898 10.9043C24.4154 10.9043 24.7166 11.0451 24.9336 11.2861L26.3691 12.8984C26.6445 13.2058 27.0365 13.3807 27.4453 13.3809H30.9854L38.9482 13.3721C39.4991 14.9345 39.8581 16.5966 40 18.3086H25.0752C24.6662 18.3086 24.2735 18.1346 23.998 17.8271L22.5625 16.2148C22.3455 15.9739 22.0452 15.8321 21.7197 15.832H21.6523C21.352 15.8322 21.0514 15.9574 20.8428 16.1816L19.1406 17.9512C18.9153 18.1838 18.6145 18.3173 18.2891 18.3174H0C0.141903 16.597 0.500839 14.9428 1.05176 13.3887H20.4258C21.0268 13.3887 21.6111 13.1226 22.0117 12.6738L23.2471 11.2861C23.464 11.0452 23.7644 10.9044 24.0898 10.9043ZM20.0088 0C26.5695 0.000120568 32.3962 3.13293 36.0605 7.98633H32.2119C31.8031 7.98627 31.4111 7.81213 31.1357 7.50488L29.6992 5.88379C29.4822 5.64298 29.1818 5.50195 28.8564 5.50195H28.79C28.4812 5.50195 28.1804 5.62627 27.9717 5.85059L26.2686 7.62109C26.0432 7.85368 25.7425 7.98633 25.417 7.98633H3.94824C7.6127 3.13293 13.4479 0 20.0088 0Z" fill="white"/>
</svg>
