<svg width="129" height="129" viewBox="0 0 129 129" fill="none" xmlns="http://www.w3.org/2000/svg">
<path d="M103.573 22.5823H24.542V94.4121H103.573V22.5823Z" fill="white"/>
<path fill-rule="evenodd" clip-rule="evenodd" d="M128.057 64.6249C128.057 99.9244 99.4231 128.54 64.1 128.54C28.7773 128.54 0.142578 99.9244 0.142578 64.6249C0.142578 29.3256 28.7773 0.709961 64.1 0.709961C99.4231 0.709961 128.057 29.3256 128.057 64.6249ZM45.9763 90.0597H33.5639C30.9557 90.0597 29.6674 90.0597 28.8819 89.5576C28.0334 89.0078 27.5149 88.0972 27.4521 87.0921C27.4049 86.1661 28.0491 85.0352 29.3375 82.7742L59.9851 28.7895C61.2892 26.4971 61.949 25.3509 62.7818 24.927C63.6773 24.4717 64.7458 24.4717 65.6414 24.927C66.4741 25.3509 67.134 26.4971 68.438 28.7895L74.7386 39.7805L74.7707 39.8366C76.1792 42.2959 76.8934 43.5431 77.2053 44.852C77.5509 46.2809 77.5509 47.7882 77.2053 49.217C76.8911 50.5359 76.184 51.7921 74.7542 54.2886L58.6558 82.7271L58.6141 82.8C57.1963 85.2796 56.4778 86.5363 55.482 87.4844C54.3979 88.521 53.0938 89.2742 51.664 89.6989C50.3599 90.0597 48.8987 90.0597 45.9763 90.0597ZM77.3216 90.0597H95.107C97.7309 90.0597 99.0509 90.0597 99.837 89.5423C100.685 88.9925 101.219 88.0657 101.267 87.0614C101.312 86.1653 100.682 85.0785 99.4469 82.9489C99.4043 82.8763 99.3617 82.8026 99.3183 82.7275L90.4094 67.4972L90.3081 67.3257C89.0562 65.2101 88.4243 64.1418 87.6127 63.7289C86.7176 63.2734 85.6641 63.2734 84.769 63.7289C83.9519 64.1528 83.2921 65.2676 81.988 67.5129L73.1108 82.7432L73.0804 82.7957C71.7809 85.0374 71.1314 86.1576 71.1782 87.0768C71.2411 88.0819 71.7596 89.0078 72.608 89.5576C73.3779 90.0597 74.6977 90.0597 77.3216 90.0597Z" fill="#E84142"/>
</svg>
