<svg width="129" height="129" viewBox="0 0 129 129" fill="none" xmlns="http://www.w3.org/2000/svg">
<path d="M103.483 89.5479L64.1121 128.625L24.9177 89.5479L39.3357 74.9531L64.1121 99.7881L88.947 74.9531L103.483 89.5479ZM28.9187 64.4775L14.4421 78.8965L0.199951 64.4775L14.4421 50.1768L28.9187 64.4775ZM78.5886 64.4775L64.1121 78.8965L49.8699 64.4775L64.1121 50.1768L78.5886 64.4775ZM128.2 64.4775L113.722 78.8965L99.4812 64.4775L113.722 50.1768L128.2 64.4775ZM103.483 39.7021L88.947 54.2969L64.1121 29.4619L39.3357 54.2969L24.9167 39.7021L64.1121 0.625L103.483 39.7021Z" fill="#F1B90C"/>
</svg>
