<svg width="129" height="129" viewBox="0 0 129 129" fill="none" xmlns="http://www.w3.org/2000/svg">
<path d="M76.3608 119.604L64.3706 126.625L52.4399 119.604V105.629L64.3706 112.649L76.3608 105.629V119.604ZM23.3315 64.625L23.397 88.6084L43.8843 100.6V114.641L11.4077 95.6934V57.6123L23.3315 64.625ZM117.4 95.6865L84.9233 114.633V100.592L105.404 88.6084L105.469 64.625L117.4 57.6045V95.6865ZM96.8989 45.6133H96.8481L96.9136 59.6543L76.3677 71.6455V95.6865L64.437 102.642L52.5054 95.6865V71.6455L31.9604 59.6543V45.6133L43.9429 38.5928L64.3638 50.6426L84.9087 38.5928L96.8989 45.6133ZM43.8843 76.6162V90.5918L31.9526 83.6367V69.5957L43.8843 76.6162ZM96.8481 83.6367L84.9165 90.5918V76.6162L96.8481 69.5957V83.6367ZM35.3208 33.6221L23.3315 40.6416V54.6172L11.3999 47.5967V33.6221L23.3315 26.6016L35.3208 33.6221ZM117.393 33.6221V47.5967L105.404 54.6172V40.6416L93.4722 33.6221L105.404 26.6016L117.393 33.6221ZM76.3608 33.6221L64.3716 40.6416L52.4399 33.6221L64.3716 26.6016L76.3608 33.6221ZM96.8481 21.6377L84.9165 28.6582L64.3706 16.6084L43.8843 28.6582L31.9526 21.6377L64.3706 2.625L96.8481 21.6377Z" fill="#F0B90B"/>
</svg>
