<svg width="289" height="30" viewBox="0 0 289 30" fill="none" xmlns="http://www.w3.org/2000/svg">
<g clip-path="url(#clip0_2500_26908)">
<path d="M33.4301 14.3942C33.0918 14.3942 32.7585 14.343 32.4401 14.2425L32.4002 14.2307C32.3646 14.2206 32.3268 14.2089 32.2847 14.1945C32.1901 14.1626 32.0873 14.1159 31.9718 14.0537L31.934 14.0335C31.5125 13.8162 31.1376 13.5034 30.849 13.1285C29.968 11.9847 29.9705 10.3898 30.8559 9.24974C31.2156 8.78609 31.6948 8.42833 32.2417 8.21478L32.2957 8.19253C32.4606 8.12359 32.5805 8.08617 32.6745 8.07439L32.7781 8.05757C32.9917 8.01468 33.2109 7.99283 33.4306 7.99283C34.7516 7.99283 35.8548 7.58971 36.6206 6.82757C37.3294 6.12221 37.6987 5.15116 37.6894 4.01911V0H29.6204V2.64916C29.6204 3.16494 29.619 3.68073 29.6204 4.19655C29.6223 5.23948 29.0236 6.66323 27.9259 7.02562C27.227 7.25639 26.36 6.9117 25.6177 6.9962C25.0078 7.06557 24.4162 7.27152 23.8973 7.59565C22.8545 8.2468 22.1501 9.35447 22.0148 10.5664C21.9625 11.0338 21.9918 11.3823 22.0135 11.6371C22.0373 11.9208 22.0446 12.0062 21.9441 12.2891C21.7466 12.8414 21.3244 13.3547 20.7558 13.7339C20.1872 14.113 19.5334 14.3215 18.9145 14.3215L18.8541 14.3207L18.7936 14.3215C18.1748 14.3215 17.5206 14.113 16.9524 13.7339C16.3837 13.3551 15.9615 12.8414 15.764 12.2891C15.6636 12.0062 15.6704 11.9204 15.6947 11.6371C15.7159 11.3828 15.7453 11.0343 15.6934 10.5664C15.558 9.35447 14.8536 8.24723 13.8108 7.59565C13.292 7.27152 12.7004 7.06557 12.0905 6.9962C11.3482 6.9117 10.4812 7.25642 9.78228 7.02562C8.68457 6.66326 8.08572 5.23948 8.08787 4.19655C8.08914 3.68073 8.08787 3.16494 8.08787 2.64916V0H0.0175202V4.01914C0.00815925 5.15119 0.378014 6.12225 1.08626 6.82761C1.85196 7.59017 2.9552 7.99286 4.27633 7.99286C4.49597 7.99286 4.71513 8.01471 4.92882 8.0576L5.03226 8.07442C5.12632 8.08661 5.24633 8.124 5.41107 8.19256L5.46508 8.21482C6.01204 8.42837 6.49128 8.78613 6.85092 9.24977C7.73623 10.3898 7.7388 11.9847 6.85772 13.1285C6.56914 13.5035 6.19376 13.8162 5.77283 14.0336L5.73491 14.0538C5.61957 14.116 5.51657 14.1622 5.42207 14.1946C5.37992 14.2089 5.34206 14.2206 5.30674 14.2307L5.2667 14.2425C4.94833 14.3434 4.61507 14.3943 4.27671 14.3943C1.71869 14.3943 0 15.948 0 18.2604C0 20.0654 0.833382 21.002 1.53226 21.4699C2.38522 22.0408 3.41395 22.2026 4.39885 22.2917L4.46697 22.2993C4.72829 22.3329 4.94877 22.3859 5.20203 22.4758L5.32416 22.5216L5.345 22.5292C6.00815 22.7529 6.56358 23.2098 6.90962 23.8159C7.105 24.1585 7.24032 24.6071 7.29057 25.0783C7.31015 25.2637 7.32334 25.4432 7.33611 25.6206C7.34589 25.7556 7.35696 25.9069 7.37188 26.059V29.5405H15.3839V25.4411C15.3839 24.3876 14.9778 23.3657 14.2236 22.6208C14.1964 22.594 14.1691 22.5679 14.141 22.5418C14.081 22.4863 14.0257 22.4392 13.9814 22.4018L13.9542 22.3787C13.0859 21.6355 11.9567 21.6157 11.1318 21.601H11.1229C10.985 21.5985 10.8543 21.596 10.739 21.5905L10.6152 21.5716L10.35 21.5132L10.1001 21.4371L9.83069 21.3311C9.54854 21.2046 9.28504 21.0398 9.05139 20.8435L8.99905 20.7989C8.25248 20.1398 7.88218 19.3272 7.86688 18.3154C7.869 17.5924 8.10308 16.9072 8.54406 16.3334C8.97397 15.7743 9.58301 15.3581 10.2589 15.1614C10.9433 14.9625 12.2198 14.9575 12.8353 15.1517C13.9568 15.5053 14.7527 16.5217 14.8153 17.6811C14.8204 17.7769 14.8165 17.8774 14.8123 17.9951C14.7995 18.3351 14.7821 18.8009 14.9808 19.3898C15.5426 21.0276 17.0966 22.1328 18.8527 22.1403C20.6089 22.1323 22.1629 21.0276 22.7247 19.3898C22.9234 18.8013 22.906 18.3356 22.8932 17.9951C22.889 17.8774 22.8851 17.7765 22.8902 17.6811C22.9528 16.5217 23.7483 15.5053 24.8702 15.1517C25.4861 14.9575 26.7621 14.9625 27.4467 15.1614C28.1223 15.3581 28.7318 15.7747 29.1613 16.3334C29.6024 16.9072 29.8364 17.5924 29.8386 18.3154C29.8232 19.3272 29.453 20.1394 28.7065 20.7989L28.6541 20.8435C28.4203 21.0394 28.1571 21.2046 27.8748 21.3311L27.6052 21.4371L27.3555 21.5132L27.0904 21.5716L26.9665 21.5905C26.8516 21.596 26.7205 21.5985 26.5826 21.601H26.5736C25.7492 21.6157 24.6196 21.6355 23.7513 22.3787L23.7241 22.4018C23.6798 22.4392 23.6245 22.4863 23.5645 22.5418C23.5364 22.5679 23.5092 22.5944 23.4819 22.6208C22.7277 23.3657 22.3216 24.3876 22.3216 25.4411V29.5405H30.3338V26.059C30.3486 25.9073 30.3597 25.7555 30.3693 25.6206C30.3823 25.4436 30.3952 25.2641 30.4148 25.0783C30.4652 24.6071 30.6006 24.1585 30.7958 23.8159C31.1415 23.2098 31.6972 22.7528 32.3605 22.5292L32.3814 22.5216L32.5035 22.4758C32.7566 22.3863 32.9771 22.3333 33.2385 22.2993L33.3066 22.2917C34.2915 22.2026 35.3203 22.0408 36.1732 21.4699C36.872 21.002 37.7056 20.0654 37.7056 18.2604C37.7056 15.948 35.9868 14.3943 33.4287 14.3943L33.4301 14.3942Z" fill="white"/>
<path d="M88.529 29.5382L88.5315 29.5404H83.5301V8.15076C83.5301 7.06273 81.9632 6.86318 81.6839 7.91411L75.9319 29.5404H66.4338L60.6796 7.91411C60.4003 6.86318 58.8334 7.06273 58.8334 8.15076V29.5404H53.832V0.399902H63.7174L70.2879 25.52C70.5297 26.448 71.8644 26.448 72.1059 25.52L78.6438 0.399902H88.5289L88.529 29.5382ZM111.248 19.1866C111.248 25.5501 107.178 29.9998 100.704 29.9998C94.2292 29.9998 90.197 25.5895 90.197 19.1866C90.197 12.823 94.2669 8.41283 100.704 8.41283C107.141 8.41283 111.248 12.823 111.248 19.1866ZM106.287 19.1866C106.287 14.6627 104.309 11.786 100.704 11.786C97.098 11.786 95.1206 14.6627 95.1206 19.1866C95.1206 23.7104 97.1358 26.6242 100.704 26.6242C104.272 26.6242 106.287 23.7475 106.287 19.1866ZM127.181 8.87457V8.87688L121.952 26.0304C121.682 26.9073 120.425 26.9096 120.155 26.0304L114.891 8.87457H110.045L116.519 29.5404H125.591L132.065 8.87457H127.181ZM151.373 19.0705C151.373 19.5299 151.333 20.0681 151.256 20.604V20.6063H136.907C136.313 20.6063 135.875 21.1445 135.987 21.7222C136.625 24.9724 138.558 26.6265 141.214 26.6265C143.869 26.6265 145.246 25.4387 145.983 23.4436H150.907C149.588 27.8539 146.06 29.9998 141.176 29.9998C134.779 29.9998 130.901 25.4759 130.901 19.1866C130.901 12.8973 134.894 8.41286 141.176 8.41286C147.458 8.41286 151.373 12.6305 151.373 19.0705ZM146.25 16.1428C145.682 13.4842 143.803 11.7883 141.174 11.7883C138.544 11.7883 136.81 13.1873 136.081 16.1196C135.935 16.7042 136.383 17.2703 136.993 17.2703H145.333C145.931 17.2703 146.374 16.7228 146.25 16.1428ZM176.961 8.41283C174.149 8.41283 172.31 9.87904 171.212 11.6886C170.836 12.3033 169.947 12.2987 169.584 11.677C168.507 9.83265 166.637 8.41283 163.895 8.41283C161.777 8.41283 160.245 9.21554 159.159 10.394C158.584 11.0158 157.536 10.6029 157.536 9.76075V8.87454H152.729V29.5404H157.575V17.5395C157.575 13.5909 159.009 11.8278 161.723 11.8278C164.437 11.8278 165.833 13.5909 165.833 17.4629V29.5404H170.679V17.5394C170.679 13.5909 172.113 11.8278 174.827 11.8278C177.541 11.8278 178.936 13.5909 178.936 17.4628V29.5404H183.783V16.5418H183.785C183.785 11.8255 181.613 8.41283 176.961 8.41283ZM205.454 19.0705C205.454 19.5299 205.414 20.0681 205.336 20.604V20.6063H190.987C190.393 20.6063 189.955 21.1445 190.067 21.7222C190.705 24.9724 192.638 26.6265 195.294 26.6265C197.949 26.6265 199.326 25.4387 200.063 23.4436H204.987C203.668 27.8539 200.14 29.9998 195.256 29.9998C188.859 29.9998 184.982 25.4759 184.982 19.1866C184.982 12.8973 188.974 8.41286 195.256 8.41286C201.539 8.41286 205.454 12.6305 205.454 19.0705ZM200.33 16.1428C199.763 13.4842 197.884 11.7883 195.254 11.7883C192.624 11.7883 190.891 13.1873 190.161 16.1196C190.016 16.7042 190.464 17.2703 191.074 17.2703H199.413C200.011 17.2703 200.455 16.7228 200.33 16.1428ZM218.248 8.41524C216.029 8.41524 214.398 9.2272 213.246 10.4405C212.66 11.0576 211.616 10.6609 211.616 9.81417V8.8746H206.81V29.5404H211.656V17.5395C211.656 13.591 213.324 11.8278 216.076 11.8278C218.827 11.8278 220.495 13.5516 220.495 17.4629V29.5404H225.341V16.5442C225.341 11.9415 223.054 8.41524 218.248 8.41524ZM234.457 25.977L234.46 25.9746C232.677 25.9746 231.628 25.3993 231.628 23.4065V13.3311C231.628 12.8184 232.048 12.4031 232.566 12.4031H236.589V8.87685H232.566C232.048 8.87685 231.628 8.46157 231.628 7.94887V3.97022H226.782V23.6385C226.782 27.6637 229.768 29.5426 233.643 29.5426H236.667V25.977H234.457Z" fill="white"/>
</g>
<path d="M244.852 6.62679V7.58616C244.852 8.59647 244.334 8.88513 243.519 9.03795C244.326 9.18229 244.852 9.46246 244.852 10.4643V10.4813V11.585V11.6019C244.852 12.018 245.047 12.2132 245.413 12.2132H245.531V13.1641H245.124C244.037 13.1641 243.553 12.5953 243.553 11.7633V11.7463V10.702V10.685C243.553 9.83602 243.282 9.69169 242.704 9.63226V8.43516C243.29 8.37573 243.553 8.2314 243.553 7.36542V6.46548C243.553 5.62497 244.029 5.04764 245.124 5.04764H245.531V5.99853H245.413C245.039 5.99853 244.852 6.20229 244.852 6.62679ZM251.882 8.19744C252.986 8.25687 253.699 8.73231 253.699 9.70018C253.699 10.8209 252.816 11.5001 251.144 11.5001H248.461V5.04764H251.118C252.791 5.04764 253.478 5.82873 253.478 6.74565C253.478 7.62861 252.799 8.08707 251.882 8.19744ZM251.169 6.16833H249.802V7.62861H251.169C251.755 7.62861 252.095 7.39938 252.095 6.90696C252.095 6.41454 251.755 6.16833 251.169 6.16833ZM249.802 10.3794H251.229C251.95 10.3794 252.315 10.0822 252.315 9.56434C252.315 9.04644 251.95 8.74929 251.229 8.74929H249.802V10.3794ZM260.146 11.5001H258.618L257.217 9.09738H256.037V11.5001H254.696V5.04764H257.26C258.813 5.04764 259.781 5.84571 259.781 7.07676C259.781 7.90878 259.34 8.55402 258.55 8.87664L260.146 11.5001ZM257.294 6.16833H256.037V7.9767H257.294C257.99 7.9767 258.406 7.6371 258.406 7.07676C258.406 6.50793 257.99 6.16833 257.294 6.16833ZM262.305 11.5001H260.964V5.04764H262.305V11.5001ZM263.65 5.04764H266.027C267.988 5.04764 269.313 6.10041 269.313 8.27385C269.313 10.4473 267.988 11.5001 266.027 11.5001H263.65V5.04764ZM264.991 10.3794H266.061C267.241 10.3794 267.929 9.64075 267.929 8.27385C267.929 6.91545 267.241 6.16833 266.061 6.16833H264.991V10.3794ZM272.939 8.91909V7.84935H276.31V11.5001H275.197V9.97186C274.934 10.7614 274.323 11.6019 272.999 11.6019C271.436 11.6019 270.002 10.3709 270.002 8.27385C270.002 6.24474 271.317 4.94576 273.202 4.94576C274.773 4.94576 275.834 5.69289 276.216 7.06827H274.815C274.569 6.42303 274.051 6.00702 273.202 6.00702C272.099 6.00702 271.385 6.89847 271.385 8.27385C271.385 9.65773 272.124 10.5407 273.262 10.5407C274.264 10.5407 274.951 9.94639 274.985 8.91909H272.939ZM278.829 8.74929V10.3794H282.004V11.5001H277.488V5.04764H281.928V6.16833H278.829V7.62861H281.869V8.74929H278.829ZM286.679 7.3824C286.679 8.2314 286.95 8.37573 287.528 8.43516V9.63226C286.95 9.69169 286.679 9.83602 286.679 10.702V11.7463C286.679 12.5868 286.203 13.1641 285.108 13.1641H284.7V12.2132H284.819C285.201 12.2132 285.38 12.0095 285.38 11.585V10.4813C285.38 9.47095 285.906 9.18229 286.712 9.02946C285.906 8.88513 285.38 8.60496 285.38 7.60314V7.58616V6.62679V6.60981C285.38 6.1938 285.193 5.99853 284.819 5.99853H284.7V5.04764H285.108C286.195 5.04764 286.679 5.61648 286.679 6.4485V6.46548V7.36542V7.3824Z" fill="white"/>
<defs>
<clipPath id="clip0_2500_26908">
<rect width="236.667" height="30" fill="white"/>
</clipPath>
</defs>
</svg>
