<svg width="129" height="129" viewBox="0 0 129 129" fill="none" xmlns="http://www.w3.org/2000/svg">
<path d="M77.1372 106.916V121.27L64.6219 128.625L52.4625 121.27V106.916L64.6219 114.271L77.1372 106.916ZM10.1715 57.27L22.3309 64.625V89.2404L43.2688 101.756V116.11L10.1715 96.5953V57.27ZM119.072 57.27V96.6546L85.6191 116.169V101.815L106.557 89.2997V64.625L119.072 57.27ZM85.5598 37.7557L98.0751 45.1106V59.4646L77.1372 71.98V97.0105L64.9778 104.365L52.8184 97.0105V71.98L31.1094 59.4646V45.1106L43.6247 37.7557L64.5626 50.271L85.5598 37.7557ZM31.1687 69.7853L43.3281 77.1403V91.4943L31.1687 84.1394V69.7853ZM98.0751 69.7853V84.1394L85.9157 91.4943V77.1403L98.0751 69.7853ZM22.3309 25.2404L34.8462 32.5953L22.3309 39.9503V54.3043L10.1715 46.9494V32.5953L22.3309 25.2404ZM106.913 25.2404L119.428 32.5953V46.9494L106.913 54.3043V39.9503L94.7535 32.5953L106.913 25.2404ZM64.6219 25.2404L77.1372 32.5953L64.6219 40.0096L52.4625 32.6547L64.6219 25.2404ZM64.6219 0.625L98.0751 20.1394L85.9157 27.4943L64.9778 14.979L43.6247 27.4943L31.5246 20.1394L64.6219 0.625Z" fill="#F3BA2C"/>
</svg>
