<svg width="129" height="129" viewBox="0 0 129 129" fill="none" xmlns="http://www.w3.org/2000/svg">
<path d="M66.1283 71.6258H103.329C104.122 71.6258 104.496 71.6258 104.554 70.5752C104.858 66.7514 104.858 62.9053 104.554 59.077C104.554 58.3335 104.188 58.0264 103.391 58.0264H29.355C28.4387 58.0264 28.192 58.3335 28.192 59.2016V70.2058C28.192 71.6258 28.192 71.6258 29.659 71.6258H66.1283ZM100.399 45.1659C100.505 44.8855 100.505 44.5783 100.399 44.3024C99.7781 42.9357 99.0424 41.6314 98.1877 40.4073C96.9013 38.3151 95.3857 36.3875 93.6588 34.6559C92.8437 33.6098 91.9009 32.6705 90.8436 31.8737C85.5481 27.3198 79.2525 24.0969 72.4856 22.4765C69.0713 21.702 65.582 21.3325 62.084 21.3637H29.2273C28.3109 21.3637 28.1875 21.7331 28.1875 22.5389V44.4849C28.1875 45.4108 28.1875 45.6601 29.3506 45.6601H99.9587C99.9587 45.6601 100.571 45.5354 100.694 45.1659H100.395H100.399ZM100.399 84.4862C99.3596 84.3705 98.3111 84.3705 97.2713 84.4862H29.4167C28.5003 84.4862 28.192 84.4862 28.192 85.7237V107.18C28.192 108.168 28.192 108.418 29.4167 108.418H60.7447C62.2426 108.533 63.7405 108.427 65.2076 108.11C69.7541 107.781 74.2258 106.784 78.4904 105.141C80.0411 104.598 81.539 103.89 82.9532 103.04H83.3806C90.7247 99.1807 96.6898 93.1177 100.452 85.6748C100.452 85.6748 100.88 84.74 100.399 84.4951V84.4862ZM15.896 119.542V119.172V104.767V99.884V85.3543C15.896 84.5486 15.896 84.4284 14.918 84.4284H1.63957C0.903838 84.4284 0.599854 84.4284 0.599854 83.4401V71.6926H14.7946C15.5876 71.6926 15.896 71.6926 15.896 70.642V59.0191C15.896 58.2757 15.896 58.0932 14.918 58.0932H1.63957C0.903838 58.0932 0.599854 58.0932 0.599854 57.1049V46.2254C0.599854 45.5443 0.599854 45.3618 1.57789 45.3618H14.7329C15.6493 45.3618 15.896 45.3618 15.896 44.1866V10.8625C15.896 9.87429 15.896 9.625 17.1208 9.625H63.0092C66.3398 9.75855 69.6484 10.128 72.9217 10.7379C79.6667 11.9977 86.1473 14.4326 92.0728 17.9093C96.0025 20.2463 99.6195 23.0686 102.84 26.3182C105.263 28.86 107.448 31.6111 109.387 34.5402C111.312 37.5093 112.911 40.6833 114.167 43.9997C114.321 44.8632 115.14 45.4464 115.995 45.2995H126.947C128.353 45.2995 128.353 45.2995 128.414 46.6617V56.8022C128.414 57.7905 128.049 58.0397 127.066 58.0397H118.621C117.766 58.0397 117.519 58.0397 117.581 59.1526C117.916 62.9186 117.916 66.698 117.581 70.4639C117.581 71.5145 117.581 71.6391 118.748 71.6391H128.41C128.837 72.1956 128.41 72.752 128.41 73.3129C128.472 74.0296 128.472 74.7552 128.41 75.4719V82.9549C128.41 84.0055 128.106 84.3171 127.185 84.3171H115.621C114.814 84.1613 114.03 84.6821 113.845 85.4923C111.092 92.726 106.686 99.2119 100.994 104.411C98.9146 106.303 96.7295 108.084 94.4474 109.726C91.9979 111.151 89.6144 112.633 87.1033 113.808C82.4818 115.91 77.6357 117.459 72.6618 118.442C67.939 119.297 63.1502 119.684 58.3437 119.618H15.8784V119.555L15.896 119.542Z" fill="#F5AC37" fill-opacity="0.937255"/>
</svg>
