<svg width="129" height="129" viewBox="0 0 129 129" fill="none" xmlns="http://www.w3.org/2000/svg">
<mask id="mask0_4177_6178" style="mask-type:luminance" maskUnits="userSpaceOnUse" x="0" y="0" width="129" height="129">
<path d="M128.7 0.625H0.700195V128.625H128.7V0.625Z" fill="white"/>
</mask>
<g mask="url(#mask0_4177_6178)">
<mask id="mask1_4177_6178" style="mask-type:luminance" maskUnits="userSpaceOnUse" x="0" y="0" width="129" height="129">
<path d="M128.7 0.625H0.700195V128.625H128.7V0.625Z" fill="white"/>
</mask>
<g mask="url(#mask1_4177_6178)">
<path d="M64.7002 0.625C29.4065 0.625 0.700195 29.3314 0.700195 64.625C0.700195 99.919 29.4065 128.625 64.7002 128.625C99.9938 128.625 128.7 99.919 128.7 64.625C128.7 29.3314 99.9938 0.625 64.7002 0.625ZM64.7002 118.063C35.2273 118.063 11.2628 94.0982 11.2628 64.625C11.2628 35.1521 35.2273 11.1876 64.7002 11.1876C94.173 11.1876 118.138 35.1521 118.138 64.625C118.138 94.0982 94.173 118.063 64.7002 118.063Z" fill="#133348"/>
<path d="M64.7002 120.625C95.6282 120.625 120.7 95.553 120.7 64.625C120.7 33.697 95.6282 8.625 64.7002 8.625C33.7722 8.625 8.7002 33.697 8.7002 64.625C8.7002 95.553 33.7722 120.625 64.7002 120.625Z" fill="white"/>
<path d="M64.71 115.053C92.5604 115.053 115.137 92.4759 115.137 64.6255C115.137 36.775 92.5604 14.1978 64.71 14.1978C36.8595 14.1978 14.2822 36.775 14.2822 64.6255C14.2822 92.4759 36.8595 115.053 64.71 115.053Z" fill="#133348"/>
<path d="M90.1725 58.3571C91.2393 51.6327 85.8137 48.0171 78.4013 45.6047L80.8065 36.4933L74.9361 35.1138L72.5921 43.9843C71.0497 43.6187 69.4669 43.2787 67.8873 42.9387L70.2481 34.0102L64.3777 32.6274L61.9725 41.7355C60.6953 41.4595 59.4385 41.1899 58.2221 40.9015L58.2289 40.8723L50.1301 38.9636L48.5677 44.8859C48.5677 44.8859 52.9261 45.8291 52.8345 45.8867C55.2125 46.4483 55.6405 47.9335 55.5689 49.1143L52.8309 59.4927C52.9941 59.5311 53.2045 59.5891 53.4425 59.6755L52.8209 59.5311L48.9821 74.0707C48.6897 74.7507 47.9525 75.7743 46.2881 75.3859C46.3493 75.4663 42.0213 74.3819 42.0213 74.3819L39.1064 80.7279L46.7501 82.5275C48.1701 82.8643 49.5629 83.2171 50.9321 83.5479L48.5029 92.7615L54.3697 94.1411L56.7749 85.0299C58.3785 85.4375 59.9345 85.8159 61.4565 86.1751L59.0581 95.2479L64.9281 96.6275L67.3573 87.4327C77.3721 89.2231 84.9001 88.5011 88.0697 79.9483C90.6241 73.0635 87.9437 69.0883 82.6749 66.4995C86.5137 65.6655 89.4013 63.2815 90.1725 58.3571ZM76.7537 76.1239C74.9429 83.0119 62.6625 79.2871 58.6809 78.3535L61.9081 66.1467C65.8897 67.0867 78.6525 68.9439 76.7537 76.1239ZM78.5713 58.2575C76.9169 64.5231 66.6981 61.3375 63.3861 60.5579L66.3073 49.4895C69.6197 50.2691 80.2969 51.7227 78.5713 58.2575Z" fill="white"/>
</g>
</g>
</svg>
