<svg width="128" height="128" viewBox="0 0 128 128" fill="none" xmlns="http://www.w3.org/2000/svg">
<g clip-path="url(#clip0_5589_70)">
<path d="M124.808 64.8618C124.919 74.8031 122.837 84.3007 118.75 93.3717C112.913 106.291 98.9269 116.855 86.1525 105.608C75.7333 96.4437 73.8047 77.8325 58.1972 75.1103C37.5466 72.6101 37.0517 96.5546 23.5519 99.2597C8.51618 102.315 3.52418 77.0218 3.74605 65.5359C3.96792 54.0501 7.02285 37.905 20.0874 37.905C35.1231 37.905 36.1386 60.6719 55.2276 59.4431C74.129 58.1546 74.4618 34.4661 86.8095 24.3199C97.4677 15.5562 110.003 21.9818 116.275 32.529C122.095 42.2826 124.646 53.7343 124.783 64.8533H124.8L124.808 64.8618Z" fill="#072723"/>
</g>
<defs>
<clipPath id="clip0_5589_70">
<rect width="128" height="128" fill="white"/>
</clipPath>
</defs>
</svg>
