<svg width="19" height="24" viewBox="0 0 19 24" fill="none" xmlns="http://www.w3.org/2000/svg">
<path d="M12.9089 0.0579164L9.20448 2.15379C7.86545 2.91137 7.74632 4.79503 8.97923 5.71528L12.7616 8.53839C13.5319 9.1134 13.4577 10.2903 12.6213 10.7641L9.20816 12.6969C7.86833 13.4557 7.75116 15.3415 8.98676 16.2603L12.5878 18.938C12.9615 19.2158 13.1817 19.654 13.1817 20.1196V20.2299C13.1817 20.5688 13.5477 20.7815 13.8422 20.6136L17.5661 18.4911C18.9058 17.7275 19.0156 15.8377 17.7733 14.924L13.9937 12.1443C13.2177 11.5736 13.2857 10.3932 14.1221 9.91546L17.5729 7.94415C18.9105 7.18001 19.02 5.29257 17.7796 4.37897L14.1674 1.71843C13.7907 1.4409 13.5682 1.00079 13.5682 0.532816V0.442398C13.5682 0.10405 13.2034 -0.108693 12.9089 0.0579164Z" fill="#075A5A"/>
<path d="M4.78588 3.38565L1.08142 5.48153C-0.257607 6.23911 -0.376741 8.12277 0.856171 9.04301L4.63849 11.8661C5.40887 12.4411 5.33469 13.6181 4.49819 14.0918L1.0851 16.0247C-0.254731 16.7834 -0.371899 18.6692 0.863704 19.588L4.46477 22.2657C4.8384 22.5436 5.05862 22.9817 5.05862 23.4474V23.5576C5.05862 23.8966 5.42463 24.1092 5.71912 23.9414L9.44302 21.8189C10.7827 21.0553 10.8925 19.1654 9.65029 18.2518L5.87063 15.472C5.09467 14.9013 5.16268 13.721 5.99905 13.2432L9.44985 11.2719C10.7875 10.5077 10.8969 8.6203 9.65654 7.70671L6.04439 5.04616C5.6676 4.76863 5.44516 4.32853 5.44516 3.86055V3.77014C5.44516 3.43179 5.08036 3.21904 4.78588 3.38565Z" fill="#075A5A"/>
</svg>
