<svg width="130" height="130" viewBox="0 0 130 130" fill="none" xmlns="http://www.w3.org/2000/svg">
<mask id="mask0_4177_6090" style="mask-type:alpha" maskUnits="userSpaceOnUse" x="1" y="0" width="129" height="129">
<path d="M65.6497 128.875C100.996 128.875 129.65 100.221 129.65 64.875C129.65 29.5288 100.996 0.875 65.6497 0.875C30.3034 0.875 1.64966 29.5288 1.64966 64.875C1.64966 100.221 30.3034 128.875 65.6497 128.875Z" fill="#162E2F"/>
</mask>
<g mask="url(#mask0_4177_6090)">
<path d="M65.6499 128.875C100.996 128.875 129.65 100.221 129.65 64.875C129.65 29.5288 100.996 0.875 65.6499 0.875C30.3037 0.875 1.6499 29.5288 1.6499 64.875C1.6499 100.221 30.3037 128.875 65.6499 128.875Z" fill="#162E2F"/>
<path d="M-22.3503 20.8749H76.8497V40.7149L86.7697 53.1149L76.8497 65.5149L94.2097 76.6751L76.8497 87.8349V110.155H-22.3503V20.8749Z" fill="url(#paint0_linear_4177_6090)"/>
<path d="M49.6499 40.8752H1.6499V52.8752H49.6499V40.8752Z" fill="url(#paint1_linear_4177_6090)"/>
<path d="M1.64966 88.875H49.6497V76.875H1.64966V88.875Z" fill="url(#paint2_linear_4177_6090)"/>
<path d="M96.7335 48.3048C95.7804 38.5598 87.3685 35.3067 76.7532 34.3941L76.7303 20.8749L68.5073 20.8899L68.5301 34.053C66.3683 34.0565 64.1589 34.1031 61.9633 34.1506L61.9427 20.9001L53.7242 20.9139L53.7443 34.4294C51.9646 34.4689 50.2161 34.5053 48.5114 34.509L48.5105 34.4667L37.1692 34.4816L37.1862 43.2708C37.1862 43.2708 43.2581 43.145 43.1575 43.2565C46.4876 43.2517 47.5751 45.1854 47.8942 46.8548C47.9152 59.2086 47.9358 71.535 47.955 83.8911C47.811 84.9402 47.1979 86.6148 44.8707 86.6221C44.9765 86.7153 38.8936 86.6308 38.8936 86.6308L37.276 96.4616L47.977 96.4433C49.9687 96.4429 51.928 96.473 53.8522 96.4813L53.8787 110.155L62.0926 110.142L62.0693 96.6129C64.3249 96.6564 66.5068 96.6705 68.6384 96.665L68.6572 110.131L76.8807 110.116L76.8597 96.4671C90.6828 95.6502 100.353 92.1489 101.532 79.1542C102.484 68.6911 97.5591 64.0319 89.7091 62.159C94.473 59.7211 97.4462 55.4358 96.7367 48.3053L96.734 48.3039L96.7335 48.3048ZM85.2785 77.5611C85.2999 87.7791 67.8156 86.6468 62.2426 86.6614L62.2147 68.5448C67.7886 68.537 85.2611 66.9032 85.2785 77.5611ZM81.411 52.0072C81.4243 61.3037 66.8423 60.2436 62.2005 60.2518L62.1735 43.8213C66.8154 43.8132 81.3941 42.3117 81.4115 52.0072H81.411Z" fill="#C4FDF2"/>
</g>
<defs>
<linearGradient id="paint0_linear_4177_6090" x1="94.2097" y1="65.5149" x2="-22.3503" y2="65.5149" gradientUnits="userSpaceOnUse">
<stop stop-color="#4E988D"/>
<stop offset="1" stop-color="#264C4A"/>
</linearGradient>
<linearGradient id="paint1_linear_4177_6090" x1="25.6499" y1="40.8752" x2="25.6499" y2="52.8752" gradientUnits="userSpaceOnUse">
<stop stop-opacity="0.1"/>
<stop offset="1" stop-opacity="0"/>
</linearGradient>
<linearGradient id="paint2_linear_4177_6090" x1="25.6497" y1="88.875" x2="25.6497" y2="76.875" gradientUnits="userSpaceOnUse">
<stop stop-opacity="0.1"/>
<stop offset="1" stop-opacity="0"/>
</linearGradient>
</defs>
</svg>
