<svg width="130" height="129" viewBox="0 0 130 129" fill="none" xmlns="http://www.w3.org/2000/svg">
<path d="M122.625 5.875L72.6802 42.7625L81.9163 20.9994L122.625 5.875Z" fill="#E2761B" stroke="#E2761B" stroke-linecap="round" stroke-linejoin="round"/>
<path d="M7.32479 5.875L56.8683 43.1119L48.084 20.9994L7.32479 5.875ZM104.655 91.3801L91.353 111.646L119.814 119.433L127.996 91.8293L104.655 91.3801ZM2.0542 91.8293L10.186 119.433L38.6471 111.646L25.3452 91.3801L2.0542 91.8293Z" fill="#E4761B" stroke="#E4761B" stroke-linecap="round" stroke-linejoin="round"/>
<path d="M37.0408 57.1381L29.1099 69.0679L57.3703 70.3158L56.3663 40.117L37.0408 57.1381ZM92.9091 57.1381L73.3326 39.7676L72.6801 70.3158L100.89 69.0679L92.9091 57.1381ZM38.6471 111.646L55.6134 103.41L40.9561 92.029L38.6471 111.646ZM74.3365 103.41L91.353 111.646L88.9938 92.029L74.3365 103.41Z" fill="#E4761B" stroke="#E4761B" stroke-linecap="round" stroke-linejoin="round"/>
<path d="M91.3529 111.646L74.3364 103.41L75.6917 114.441L75.5411 119.083L91.3529 111.646ZM38.647 111.646L54.4587 119.083L54.3583 114.441L55.6132 103.41L38.647 111.646Z" fill="#D7C1B3" stroke="#D7C1B3" stroke-linecap="round" stroke-linejoin="round"/>
<path d="M54.71 84.7413L40.5547 80.5983L50.5437 76.056L54.71 84.7413ZM75.2402 84.7413L79.4065 76.056L89.4457 80.5983L75.2402 84.7413Z" fill="#233447" stroke="#233447" stroke-linecap="round" stroke-linejoin="round"/>
<path d="M38.6472 111.646L41.0566 91.3801L25.3452 91.8293L38.6472 111.646ZM88.9436 91.3801L91.3531 111.646L104.655 91.8293L88.9436 91.3801ZM100.89 69.0679L72.6801 70.3158L75.2903 84.7413L79.4566 76.056L89.4958 80.5983L100.89 69.0679ZM40.5546 80.5983L50.5938 76.056L54.7099 84.7413L57.3703 70.3158L29.1099 69.0679L40.5546 80.5983Z" fill="#CD6116" stroke="#CD6116" stroke-linecap="round" stroke-linejoin="round"/>
<path d="M29.1099 69.0679L40.9561 92.029L40.5546 80.5983L29.1099 69.0679ZM89.4958 80.5983L88.9938 92.029L100.89 69.0679L89.4958 80.5983ZM57.3703 70.3158L54.7099 84.7413L58.0228 101.762L58.7757 79.3504L57.3703 70.3158ZM72.6801 70.3158L71.3248 79.3005L71.9271 101.762L75.2903 84.7413L72.6801 70.3158Z" fill="#E4751F" stroke="#E4751F" stroke-linecap="round" stroke-linejoin="round"/>
<path d="M75.2904 84.7414L71.9272 101.763L74.3366 103.41L88.9939 92.029L89.4959 80.5984L75.2904 84.7414ZM40.5547 80.5984L40.9563 92.029L55.6135 103.41L58.0229 101.763L54.71 84.7414L40.5547 80.5984Z" fill="#F6851B" stroke="#F6851B" stroke-linecap="round" stroke-linejoin="round"/>
<path d="M75.5411 119.083L75.6917 114.441L74.4368 113.343H55.5129L54.3583 114.441L54.4587 119.083L38.647 111.646L44.1685 116.138L55.3623 123.875H74.5874L85.8313 116.138L91.3529 111.646L75.5411 119.083Z" fill="#C0AD9E" stroke="#C0AD9E" stroke-linecap="round" stroke-linejoin="round"/>
<path d="M74.3364 103.41L71.927 101.762H58.0227L55.6133 103.41L54.3584 114.441L55.5129 113.343H74.4368L75.6917 114.441L74.3364 103.41Z" fill="#161616" stroke="#161616" stroke-linecap="round" stroke-linejoin="round"/>
<path d="M124.733 45.1584L129 24.7929L122.625 5.875L74.3365 41.5146L92.909 57.1381L119.162 64.7752L124.984 58.0366L122.475 56.2396L126.49 52.5958L123.378 50.1999L127.394 47.155L124.733 45.1584ZM1 24.7929L5.26667 45.1584L2.55608 47.155L6.57177 50.1999L3.5098 52.5958L7.52549 56.2396L5.01569 58.0366L10.7882 64.7752L37.0408 57.1381L55.6133 41.5146L7.32471 5.875L1 24.7929Z" fill="#763D16" stroke="#763D16" stroke-linecap="round" stroke-linejoin="round"/>
<path d="M119.162 64.7752L92.9091 57.1381L100.89 69.0679L88.9938 92.029L104.655 91.8293H127.996L119.162 64.7752ZM37.0409 57.1381L10.7883 64.7752L2.0542 91.8293H25.3452L40.9562 92.029L29.1099 69.0679L37.0409 57.1381ZM72.6801 70.3158L74.3366 41.5146L81.9664 20.9994H48.084L55.6134 41.5146L57.3703 70.3158L57.9726 79.4004L58.0228 101.763H71.9271L72.0275 79.4004L72.6801 70.3158Z" fill="#F6851B" stroke="#F6851B" stroke-linecap="round" stroke-linejoin="round"/>
</svg>
