<svg width="129" height="129" viewBox="0 0 129 129" fill="none" xmlns="http://www.w3.org/2000/svg">
<path d="M0.248383 13.875C9.26486 13.875 18.2813 13.875 27.571 13.875C27.6293 21.4554 27.6293 21.4554 27.6468 23.8434C27.6525 24.5537 27.6525 24.5537 27.6585 25.2639C27.661 25.5787 27.6633 25.8935 27.6654 26.2083C27.6687 26.6869 27.6727 27.1655 27.6769 27.644C27.6777 27.7828 27.6785 27.9216 27.6793 28.0646C27.7099 31.1336 28.6561 34.0107 30.7812 36.299C32.0042 37.4668 33.5545 38.1723 35.2514 38.1655C35.4208 38.1662 35.5902 38.1669 35.7647 38.1676C36.2467 38.1517 36.7086 38.0803 37.1839 37.9999C40.0707 37.5342 42.813 37.7525 45.4307 39.0651C45.5654 39.1285 45.7001 39.1919 45.8389 39.2573C49.2859 40.9075 51.5198 43.9068 52.8757 47.3921C52.9259 47.5471 52.9761 47.702 53.0277 47.8617C53.0801 48.0109 53.0801 48.0109 53.1335 48.163C53.6035 49.7035 53.4831 51.3458 53.4756 52.9398C53.4512 55.1531 53.4512 55.1531 54.2273 57.1914C54.2942 57.3156 54.3611 57.4399 54.43 57.5679C55.7402 59.9268 58.1181 61.5325 60.6248 62.3894C60.7474 62.4318 60.8701 62.4742 60.9965 62.518C63.0084 63.0939 65.4312 62.9985 67.4221 62.3894C67.6064 62.336 67.6064 62.336 67.7944 62.2816C69.4603 61.7407 70.8504 60.8141 72.087 59.5905C72.1828 59.5011 72.2787 59.4118 72.3775 59.3197C73.7335 58.0303 74.7682 56.3129 74.8215 54.4056C74.8211 53.8648 74.8062 53.3252 74.7859 52.7848C74.7734 52.3501 74.7632 51.9154 74.7547 51.4806C74.7515 51.3237 74.7515 51.3237 74.7483 51.1637C74.7039 47.442 76.4149 44.2638 78.9259 41.6308C80.3617 40.2479 81.9661 39.265 83.8157 38.532C83.9063 38.4957 83.9968 38.4594 84.0901 38.422C86.3781 37.5468 89.0104 37.6567 91.3929 38.0707C93.4135 38.3666 95.2085 38.0164 96.8773 36.7994C97.4923 36.2661 97.4923 36.2661 97.9435 35.5998C98.0315 35.5998 98.1194 35.5998 98.2101 35.5998C98.2403 35.5119 98.2705 35.4239 98.3017 35.3333C98.4766 34.9334 98.4766 34.9334 98.7682 34.5003C99.1275 33.9399 99.3809 33.3475 99.6345 32.7343C99.6741 32.6394 99.7138 32.5445 99.7546 32.4468C100.426 30.7907 100.493 29.1418 100.503 27.3717C100.505 27.2222 100.506 27.0727 100.507 26.9187C100.511 26.4408 100.515 25.9629 100.518 25.485C100.52 25.1876 100.523 24.8902 100.526 24.5927C100.535 23.497 100.543 22.4012 100.551 21.3054C100.57 18.8534 100.589 16.4013 100.609 13.875C109.626 13.875 118.642 13.875 127.932 13.875C127.948 17.8623 127.948 17.8623 127.965 21.9302C127.97 22.7654 127.975 23.6006 127.98 24.4612C127.982 25.4916 127.982 25.4916 127.983 25.976C127.983 26.3098 127.985 26.6437 127.988 26.9776C128.02 31.0296 127.25 34.3349 124.41 37.3867C123.345 38.4625 122.122 39.2653 120.735 39.8648C120.533 39.9548 120.533 39.9548 120.326 40.0465C118.21 40.9619 116.076 41.3232 113.779 41.3976C112.082 41.4539 110.413 41.627 108.873 42.3972C108.728 42.4697 108.583 42.5422 108.433 42.6169C105.839 43.9764 103.993 46.24 103.108 49.0373C102.461 51.2884 102.54 53.6441 103.275 55.8586C103.316 55.984 103.358 56.1094 103.401 56.2386C104.368 58.8632 106.403 60.9156 108.86 62.1905C110.553 62.9505 112.314 63.1011 114.146 63.1724C116.425 63.2832 118.702 63.5465 120.735 64.6551C120.894 64.7345 121.054 64.8135 121.214 64.892C124.074 66.3219 126.289 68.671 127.345 71.7144C127.507 72.2022 127.661 72.6899 127.799 73.1851C127.825 73.2777 127.851 73.3703 127.878 73.4657C128.098 74.3259 128.106 75.1665 128.098 76.0507C128.097 76.2035 128.097 76.3562 128.096 76.5136C128.056 79.7692 127.357 82.8729 125.266 85.447C125.134 85.6174 125.134 85.6174 125 85.7912C124.604 86.269 124.139 86.6463 123.667 87.0464C123.543 87.1591 123.419 87.2718 123.292 87.3879C122.24 88.2506 120.935 88.7277 119.668 89.1789C119.563 89.2172 119.457 89.2555 119.348 89.295C117.883 89.8064 116.399 90.0655 114.862 90.2535C112.529 90.5259 112.529 90.5259 110.272 91.1448C110.175 91.1801 110.077 91.2155 109.977 91.2519C108.046 91.9729 106.266 93.1429 105.141 94.91C105.056 95.0272 105.056 95.0272 104.969 95.1469C104.401 95.9684 104.119 96.9008 103.808 97.8422C103.72 98.1061 103.632 98.37 103.541 98.6419C103.006 104.172 103.067 109.746 103.008 115.302C94.0357 115.302 85.0632 115.302 75.8188 115.302C75.7982 111.463 75.7982 111.463 75.7772 107.547C75.7711 106.744 75.765 105.942 75.7588 105.115C75.7558 104.121 75.7558 104.121 75.7552 103.652C75.7542 103.332 75.7519 103.011 75.7485 102.69C75.7218 100.05 75.8917 97.5494 77.1516 95.1765C77.202 95.0671 77.2523 94.9577 77.3042 94.8449C77.7246 93.9407 78.2762 93.1652 78.8843 92.3776C78.9434 92.2993 79.0025 92.2209 79.0634 92.1402C80.7754 89.9656 83.2956 88.7756 85.9482 88.2459C86.119 88.2099 86.119 88.2099 86.2934 88.1731C87.2521 87.9895 88.1856 87.9571 89.1575 87.9562C91.2068 87.954 92.995 87.7991 94.878 86.9131C94.9664 86.8727 95.0548 86.8323 95.1459 86.7906C96.7922 86.0146 98.294 84.7205 99.2763 83.1812C99.3735 83.0372 99.3735 83.0372 99.4726 82.8902C100.688 80.9965 101.195 79.0487 101.184 76.8171C101.183 76.5874 101.183 76.5874 101.182 76.3531C101.141 73.3871 100.006 70.8563 97.9961 68.6895C95.3449 66.2478 92.1416 65.5008 88.6388 65.5215C88.5276 65.5218 88.4165 65.5221 88.3019 65.5225C85.32 65.5393 82.8418 66.1158 80.6149 68.234C78.4386 70.5902 77.8735 73.198 77.8859 76.2821C77.8894 79.5607 76.8298 82.3641 74.7526 84.9139C74.6454 85.0513 74.5382 85.1888 74.4277 85.3304C72.6052 87.3751 70.1605 88.6967 67.5554 89.4454C67.4383 89.4804 67.3213 89.5154 67.2007 89.5515C66.1707 89.8378 65.2064 89.9129 64.1401 89.9036C63.9768 89.9026 63.8136 89.9016 63.6454 89.9005C60.1284 89.8371 56.8002 88.3963 54.2887 85.9119C53.9914 85.5866 53.7076 85.2541 53.4276 84.9139C53.3345 84.8055 53.2413 84.6971 53.1454 84.5854C50.9829 82.0025 50.2748 78.9697 50.3068 75.6888C50.3243 73.0087 49.6174 70.3602 47.6965 68.387C45.397 66.238 42.8275 65.5128 39.7283 65.5287C39.3931 65.5298 39.0583 65.526 38.7232 65.5217C35.6406 65.5085 32.6285 66.4389 30.321 68.5609C28.0698 70.8983 27.0147 73.5208 27.0129 76.7504C27.0113 76.9009 27.0097 77.0514 27.008 77.2065C27.0028 80.1719 28.2763 82.8133 30.3444 84.9128C31.5747 86.1037 33.0413 86.8596 34.6349 87.4462C34.7306 87.4833 34.8263 87.5204 34.9248 87.5586C35.8546 87.8826 36.7528 87.9028 37.7312 87.9102C41.6916 87.9467 45.5482 88.4734 48.4696 91.4202C48.7048 91.6918 48.9351 91.9663 49.1626 92.2444C49.2578 92.3596 49.353 92.4749 49.451 92.5937C50.6674 94.134 51.4622 95.8121 51.9615 97.7089C51.9971 97.8419 52.0327 97.9749 52.0693 98.112C52.3224 99.1226 52.4172 100.055 52.4067 101.094C52.4068 101.252 52.4068 101.409 52.4069 101.571C52.4066 102.074 52.4036 102.577 52.4004 103.08C52.3998 103.393 52.3994 103.707 52.3992 104.02C52.3971 105.173 52.3915 106.327 52.3863 107.48C52.3781 110.061 52.3698 112.643 52.3613 115.302C43.3888 115.302 34.4164 115.302 25.172 115.302C25.128 111.168 25.084 107.033 25.0387 102.774C24.4858 97.2654 24.4858 97.2654 21.3349 92.993C19.5668 91.6086 17.1697 90.6376 14.9176 90.4324C9.98728 89.9807 5.82097 88.7898 2.47564 84.9649C0.947814 83.0242 0.178738 80.2931 0.115102 77.85C0.112375 77.7473 0.109647 77.6447 0.106837 77.539C0.0221406 73.834 0.716286 70.3797 3.29719 67.5873C4.36398 66.475 5.54437 65.6275 6.91244 64.9217C7.03176 64.8547 7.03176 64.8547 7.1535 64.7863C9.14235 63.7085 11.4454 63.2983 13.678 63.209C17.1936 63.0601 20.2518 62.2629 22.7479 59.6071C24.8192 57.18 25.6455 54.2925 25.4677 51.1453C25.2342 48.3319 23.7943 45.6884 21.6499 43.8659C19.5673 42.232 17.3697 41.5208 14.7441 41.4271C12.1548 41.3321 9.66705 40.9925 7.31229 39.8648C7.2275 39.8243 7.14271 39.7837 7.05536 39.742C5.8022 39.1239 4.83123 38.3053 3.84698 37.3325C3.74836 37.2435 3.64974 37.1545 3.54813 37.0628C1.67221 35.3329 0.399547 32.3892 0.219625 29.8652C0.174393 28.7308 0.187041 27.5962 0.19632 26.4612C0.197106 26.138 0.197649 25.8148 0.197947 25.4916C0.200721 24.3044 0.208164 23.1173 0.215063 21.9302C0.226059 19.272 0.237054 16.6138 0.248383 13.875Z" fill="#FFD935"/>
</svg>
