<svg width="129" height="129" viewBox="0 0 129 129" fill="none" xmlns="http://www.w3.org/2000/svg">
<path d="M113.381 0.25C104.008 13.3225 92.2874 22.3847 78.4172 28.4556C73.6092 27.1484 68.6682 26.4394 63.8159 26.4837C58.9635 26.4394 54.0225 27.1262 49.2145 28.4556C35.3665 22.3847 23.6234 13.3225 14.251 0.25C11.415 7.36234 0.513796 31.9343 13.6085 66.2552C13.6085 66.2552 9.42084 84.1801 17.1093 99.5791C17.1093 99.5791 28.2541 94.5495 37.0726 101.617C46.312 109.129 43.3651 116.33 49.8792 122.534C55.4627 128.25 63.8159 128.25 63.8159 128.25C63.8159 128.25 72.169 128.25 77.7525 122.534C84.2666 116.33 81.3419 109.129 90.5592 101.617C99.3776 94.5273 110.522 99.5791 110.522 99.5791C118.211 84.1801 114.023 66.2552 114.023 66.2552C127.118 31.9343 116.217 7.36234 113.381 0.25ZM20.5657 61.4915C13.4534 46.8901 11.4814 26.8382 16.0014 10.9961C21.9395 26.0184 30.0045 32.7762 39.6206 39.8886C35.5216 48.3525 27.8775 56.3289 20.5657 61.4915ZM41.0386 87.2156C35.4551 84.734 34.2365 79.8373 34.2365 79.8373C41.8806 75.0293 53.1141 78.7073 53.4686 90.0959C47.5527 86.5287 45.6029 89.2318 41.0386 87.2156ZM63.8159 127.607C59.8055 127.607 56.5484 124.749 56.5484 121.204C56.5484 117.659 59.8055 114.801 63.8159 114.801C67.8263 114.801 71.0833 117.659 71.0833 121.204C71.0833 124.749 67.8263 127.607 63.8159 127.607ZM86.5931 87.2156C82.0288 89.2097 80.079 86.5065 74.1631 90.0959C74.5176 78.7073 85.7511 75.0293 93.3952 79.8373C93.3952 79.8595 92.1988 84.7561 86.5931 87.2156ZM107.066 61.4915C99.7542 56.3289 92.1101 48.3525 88.0333 39.8886C97.6494 32.7762 105.714 26.0184 111.652 10.9961C116.15 26.8604 114.178 46.9123 107.066 61.4915Z" fill="#6067F9"/>
</svg>
