<svg width="129" height="129" viewBox="0 0 129 129" fill="none" xmlns="http://www.w3.org/2000/svg">
<path d="M120.923 71.322C125.378 61.3973 103.223 33.5364 82.0317 22.0572C68.6666 13.0891 54.8198 14.2849 51.93 18.2308C45.7893 26.8402 72.3992 34.2538 90.2194 42.7436C86.3664 44.4177 82.7542 47.4071 80.7073 51.1139C74.0849 43.9394 59.5156 37.7215 42.4179 42.7436C30.8588 46.0917 21.3467 54.1032 17.6141 66.0607C16.7712 65.702 15.6875 65.4628 14.7243 65.4628C10.7509 65.4628 7.49988 68.6913 7.49988 72.6373C7.49988 76.5833 10.7509 79.8118 14.7243 79.8118C15.4467 79.8118 17.7345 79.3335 17.7345 79.3335L54.8198 79.5726C40.0097 103.009 28.2099 106.357 28.2099 110.423C28.2099 114.488 39.4077 113.412 43.6219 111.858C63.8503 104.683 85.5235 82.0837 89.2561 75.6267C104.909 77.6594 118.033 77.779 120.923 71.322Z" fill="url(#paint0_linear_4165_5992)"/>
<path fill-rule="evenodd" clip-rule="evenodd" d="M90.3399 42.7438C91.1827 42.3851 91.0623 41.1893 90.8215 40.2327C90.3399 38.0804 81.3094 29.2319 72.8809 25.2859C61.3218 19.9051 52.8933 20.1442 51.6893 22.6553C53.977 27.4383 64.934 31.8625 76.2523 36.6455C80.9481 38.5587 85.8848 40.5915 90.3399 42.7438Z" fill="url(#paint1_linear_4165_5992)"/>
<path fill-rule="evenodd" clip-rule="evenodd" d="M75.6504 90.8125C73.3626 89.9755 70.7137 89.1384 67.7035 88.421C70.8341 82.801 71.5565 74.3112 68.5463 69.0499C64.3321 61.6363 59.0342 57.6903 46.6323 57.6903C39.8895 57.6903 21.5877 59.9622 21.2264 75.1482C21.2264 76.7027 21.2264 78.1376 21.3468 79.5725H54.82C50.3649 86.6274 46.1507 91.8887 42.418 95.8346C46.8731 96.9108 50.4853 97.8674 53.8567 98.824C56.9873 99.661 59.9975 100.378 63.0076 101.215C67.5831 97.8674 71.9177 94.2801 75.6504 90.8125Z" fill="url(#paint2_linear_4165_5992)"/>
<path d="M17.1326 77.7791C18.4571 89.2582 25.0795 93.8021 38.565 95.1174C52.0506 96.4327 59.7566 95.5957 69.9912 96.4327C78.5401 97.1502 86.2462 101.574 89.0155 100.02C91.5441 98.7046 90.0992 93.8021 86.7278 90.6931C82.2727 86.6276 76.132 83.8774 65.4158 82.8012C67.5831 76.942 66.9811 68.6914 63.6097 64.2671C58.7934 57.8101 49.8833 54.9403 38.565 56.136C26.7652 57.5709 15.4469 63.4301 17.1326 77.7791Z" fill="url(#paint3_linear_4165_5992)"/>
<defs>
<linearGradient id="paint0_linear_4165_5992" x1="41.193" y1="62.062" x2="120.033" y2="84.5752" gradientUnits="userSpaceOnUse">
<stop stop-color="#8797FF"/>
<stop offset="1" stop-color="#AAA8FF"/>
</linearGradient>
<linearGradient id="paint1_linear_4165_5992" x1="103.895" y1="63.817" x2="47.3454" y2="6.73401" gradientUnits="userSpaceOnUse">
<stop stop-color="#3B22A0"/>
<stop offset="1" stop-color="#5156D8" stop-opacity="0"/>
</linearGradient>
<linearGradient id="paint2_linear_4165_5992" x1="77.2217" y1="92.8614" x2="22.7079" y2="61.3017" gradientUnits="userSpaceOnUse">
<stop stop-color="#3B1E8F"/>
<stop offset="1" stop-color="#6A6FFB" stop-opacity="0"/>
</linearGradient>
<linearGradient id="paint3_linear_4165_5992" x1="37.3807" y1="68.5079" x2="74.0397" y2="115.411" gradientUnits="userSpaceOnUse">
<stop stop-color="#8898FF"/>
<stop offset="0.9839" stop-color="#5F47F1"/>
</linearGradient>
</defs>
</svg>
