<svg width="129" height="129" viewBox="0 0 129 129" fill="none" xmlns="http://www.w3.org/2000/svg">
<path d="M27.2034 69.8818C40.862 70.2411 85.7064 69.5451 103.153 69.9277C117.763 70.2525 114.423 87.4541 113.918 91.7548L113.907 91.7431C112.082 107.102 100.581 121.592 85.637 125.684C75.4561 128.465 32.6552 128.895 21.5218 127.411C16.8391 126.785 15.7033 124.42 15.2786 119.957C14.4293 111.112 14.2684 88.3245 15.4505 79.7929C16.472 72.4207 20.4087 69.6964 27.2034 69.8818ZM43.5599 2.82414C53.7413 0.0422735 96.5404 -0.397807 107.674 1.08586C112.357 1.7118 113.494 4.07621 113.918 8.53898C114.768 17.3835 114.929 40.1726 113.746 48.704C112.725 56.0761 108.787 58.7996 101.992 58.6142C88.3334 58.2549 43.4903 58.9508 26.0443 58.5683C11.4332 58.2552 14.7728 41.0534 15.2894 36.7528C17.1029 21.394 28.6158 6.90439 43.5599 2.82414Z" fill="url(#paint0_linear_198_3198)"/>
<defs>
<linearGradient id="paint0_linear_198_3198" x1="114.6" y1="64.2502" x2="14.5997" y2="64.2502" gradientUnits="userSpaceOnUse">
<stop stop-color="#FBBD16"/>
<stop offset="1" stop-color="#EF6746"/>
</linearGradient>
</defs>
</svg>
