<svg width="129" height="129" viewBox="0 0 129 129" fill="none" xmlns="http://www.w3.org/2000/svg">
<path d="M38.5405 18.5565C40.1059 17.668 42.0453 18.8028 42.0454 20.6073V21.0897C42.0454 23.5856 43.228 25.9328 45.231 27.413L64.4321 41.6024C71.0256 46.4749 70.4442 56.5413 63.3335 60.6171L44.9897 71.1307C40.5439 73.679 40.1823 79.9737 44.3071 83.0175L64.3989 97.8427C71.0021 102.715 70.4185 112.794 63.2974 116.867L43.5015 128.187C41.936 129.082 39.9907 127.948 39.9907 126.141V125.553C39.9907 123.069 38.8196 120.733 36.8335 119.251L17.6909 104.97C11.1228 100.069 11.7464 90.0111 18.8687 85.9647L37.0112 75.6561C41.4579 73.1297 41.8524 66.8527 37.7573 63.786L17.6509 48.7294C11.0974 43.8215 11.7307 33.7758 18.8481 29.7352L38.5405 18.5565ZM81.7212 0.808472C83.2866 -0.0797042 85.2259 1.05499 85.2261 2.85925V3.34167C85.2261 5.83746 86.4083 8.18475 88.4106 9.66492L107.613 23.8544C114.206 28.7269 113.624 38.7936 106.514 42.869L88.1704 53.3827C83.7243 55.9306 83.3627 62.2257 87.4878 65.2694L107.579 80.0946C114.182 84.9676 113.599 95.0463 106.478 99.119L86.6821 110.439C85.1166 111.335 83.1714 110.2 83.1714 108.392V107.805C83.1714 105.321 82.0006 102.984 80.0142 101.503L60.8716 87.2216C54.3035 82.3213 54.9263 72.2636 62.0483 68.2167L80.1919 57.9081C84.638 55.3811 85.0327 49.1047 80.938 46.038L60.8315 30.9813C54.2779 26.0733 54.9112 16.0277 62.0288 11.9872L81.7212 0.808472Z" fill="#075A5A"/>
</svg>
