<svg width="129" height="129" viewBox="0 0 129 129" fill="none" xmlns="http://www.w3.org/2000/svg">
<circle cx="64.7002" cy="64.25" r="64" fill="url(#paint0_linear_4177_6058)"/>
<path d="M69.7524 31.0842L76.7577 32.4468C76.7577 32.4468 77.4147 29.101 78.2716 25.9693C78.8786 23.7436 81.0852 22.4167 84.0201 23.0302C86.4624 23.5367 87.505 24.8921 87.4121 26.804C87.2336 30.4065 86.0268 34.6654 86.0268 34.6654C95.2101 39.0099 100.266 43.2331 98.2665 54.269C96.6883 63.0079 90.2971 65.3549 84.5414 67.4808C84.5414 67.4808 89.7615 71.7539 91.6539 74.5718C99.7447 86.5779 89.4188 106.474 69.8524 99.9823L68.2313 106.353C67.2387 108.686 65.632 110.719 63.0755 110.155C59.048 109.271 58.7552 106.253 59.3908 103.421C60.0763 100.368 60.9689 97.6353 60.9689 97.6353L53.5922 96.0587L51.8427 102.879C50.9144 105.425 49.0577 106.795 45.7085 105.861C42.8807 105.069 41.7381 103.435 42.2666 100.31C42.5951 98.3772 44.3946 93.3907 44.3946 93.3907C43.9019 93.3051 36.718 91.5217 31.9906 89.8523C30.0054 89.1532 28.1988 87.113 28.8272 84.0668C29.4556 81.0207 31.0766 79.6796 33.0404 79.9649C36.5823 80.4714 39.4673 81.2276 39.4673 81.2276L51.0358 36.6058C51.0358 36.6058 48.3436 35.8496 45.8942 35.2718C43.6805 34.7439 43.2806 32.3255 43.8947 29.8501C44.6231 26.9038 45.7371 25.6412 49.0577 26.1691C52.1212 26.6542 60.2762 28.3235 60.2762 28.3235C60.9761 25.4628 61.2474 24.1645 61.8615 21.5392C62.2829 19.7487 64.3823 17.7298 67.6029 18.3718C69.9452 18.8427 71.5305 21.3252 71.202 23.6865C70.695 27.339 69.7452 31.0842 69.7452 31.0842H69.7524ZM68.5384 47.3635C65.9462 48.1411 60.7904 49.2255 59.0694 50.852C56.2273 53.5271 57.984 59.3483 62.1258 59.6051C65.6391 59.8191 65.6391 59.6764 72.3874 57.9572C74.594 57.3936 78.4287 56.131 80.6639 55.5388C87.1336 53.8125 84.8913 44.0463 77.429 45.4231C75.2295 45.8298 72.0232 46.322 68.5313 47.3635H68.5384ZM68.5098 71.3901C65.7891 72.0892 55.2061 75.171 52.7853 76.1412C48.7006 77.7749 49.3362 85.1441 53.9707 85.672C57.2342 86.0429 67.8886 82.2335 72.3803 80.9637C80.1711 78.7664 75.8865 69.4997 68.5098 71.3972V71.3901Z" fill="white"/>
<defs>
<linearGradient id="paint0_linear_4177_6058" x1="79.2002" y1="5.25" x2="48.2002" y2="128.25" gradientUnits="userSpaceOnUse">
<stop stop-color="#FBDA6C"/>
<stop offset="1" stop-color="#D9892B"/>
</linearGradient>
</defs>
</svg>
