<svg width="129" height="129" viewBox="0 0 129 129" fill="none" xmlns="http://www.w3.org/2000/svg">
<g clip-path="url(#clip0_10_3127)">
<path d="M32.0551 10.0484C2.10973 28.2852 -7.40221 67.4857 10.8483 97.4447C29.099 127.404 68.2993 136.938 98.2446 118.702C128.19 100.465 137.702 61.2647 119.451 31.3053C101.201 1.3462 62.0003 -8.18829 32.0551 10.0484ZM92.783 109.736C67.7763 124.965 35.051 117.005 19.8103 91.9869C4.56966 66.9687 12.5104 34.2436 37.5171 19.0145C62.5236 3.78549 95.2493 11.7446 110.49 36.7628C125.731 61.7812 117.789 94.507 92.783 109.736Z" fill="black"/>
<path d="M94.1078 111.911C120.349 95.9298 128.657 61.6923 112.664 35.439C96.6707 9.18566 62.4332 0.858297 36.1919 16.8392C9.95073 32.8202 1.64298 67.0577 17.636 93.311C33.6291 119.564 67.8666 127.892 94.1078 111.911Z" fill="#FF6632"/>
<path d="M91.2349 107.176C114.865 92.7853 122.346 61.9549 107.944 38.314C93.5425 14.673 62.7121 7.17408 39.0821 21.5648C15.4521 35.9556 7.97088 66.7863 22.3725 90.4273C36.7741 114.068 67.6049 121.567 91.2349 107.176Z" fill="black"/>
<path d="M83.4749 45.8478C80.9127 39.5694 74.4586 39.3001 66.9431 41.0841L64.2835 32.08L58.6052 33.9451L61.1924 42.7124C59.6988 43.1997 58.1843 43.7298 56.6724 44.2582L54.0695 35.4329L48.3894 37.2952L51.0473 46.2965C49.8244 46.7228 48.6219 47.144 47.444 47.5283L47.4347 47.4999L39.598 50.0683L41.3275 55.9204C41.3275 55.9204 45.5016 54.4667 45.4538 54.5631C47.7554 53.81 48.8829 54.8531 49.4307 55.8956L52.4616 66.1509C52.6195 66.0991 52.8274 66.0396 53.0733 65.9899L52.4729 66.1888L56.7164 80.5575C56.8194 81.288 56.723 82.5413 55.1144 83.0724C55.2076 83.1092 50.9865 84.4269 50.9865 84.4269L51.7899 91.3401L59.1853 88.9145C60.5604 88.466 61.9208 88.0452 63.2499 87.6179L65.9418 96.7214L71.6172 94.8583L68.9577 85.8544C70.5247 85.3711 72.0364 84.8876 73.5094 84.4053L76.1548 93.373L81.8329 91.5082L79.1507 82.4207C88.5477 78.7594 94.5459 74.2465 92.821 65.3222C91.435 58.1369 87.1185 56.1399 81.326 56.6637C84.1447 53.9657 85.3598 50.4404 83.4749 45.8478ZM81.2747 67.9253C83.2917 74.7283 70.9807 77.9155 67.1304 79.1822L63.5714 67.1167C67.425 65.8554 79.1818 60.828 81.2747 67.9253ZM73.6067 51.7703C75.4352 57.9623 65.1466 60.5412 61.9423 61.5923L58.7109 50.6546C61.9156 49.6032 71.6996 45.3122 73.6067 51.7703Z" fill="white"/>
</g>
<defs>
<clipPath id="clip0_10_3127">
<rect width="128" height="128" fill="white" transform="translate(0.149902 0.375)"/>
</clipPath>
</defs>
</svg>
