<svg width="130" height="129" viewBox="0 0 130 129" fill="none" xmlns="http://www.w3.org/2000/svg">
<circle cx="65.2502" cy="64.375" r="64" fill="white"/>
<path d="M118.155 57.975H111.058C109.359 40.9062 95.7649 25.4822 79.4129 20.5606C51.9271 12.2854 24.3251 30.0326 20.0176 57.911C19.7851 58.1094 14.7606 58.103 13.934 57.9814C12.9136 57.8342 12.9588 58.3654 12.9653 57.015C12.9847 49.9238 19.4428 36.9446 23.9699 31.4342C54.1552 -5.33383 112.646 11.6646 118.162 57.9814L118.155 57.975Z" fill="black"/>
<path d="M20.0175 70.839C25.197 102.404 60.4454 120.125 88.9063 103.524C100.77 96.6054 109.237 84.4582 111.084 70.8006L118.155 70.7686C117.006 86.583 105.852 102.173 92.1354 109.924C58.8696 128.708 17.8928 107.831 12.9846 70.775L20.024 70.8326L20.0175 70.839Z" fill="black"/>
<path d="M65.2438 43.9014L46.864 84.2278C45.2494 85.6486 40.4252 84.503 38.1455 84.855L56.9451 43.991L65.2438 43.9078V43.9014Z" fill="black"/>
<path d="M73.5296 43.9974L92.3421 84.8486L84.0563 84.7526C80.33 75.7862 75.6414 67.2166 71.5792 58.4102C70.6944 56.4902 65.0823 44.7142 65.8831 43.9014L73.5231 44.0038L73.5296 43.9974Z" fill="black"/>
<path d="M72.9871 84.8551H57.507L65.5667 64.3687L72.9871 84.8551Z" fill="black"/>
</svg>
