<svg width="130" height="129" viewBox="0 0 130 129" fill="none" xmlns="http://www.w3.org/2000/svg">
<circle cx="65.6499" cy="64.375" r="64" fill="black"/>
<path d="M118.555 57.975H111.457C109.759 40.9062 96.1645 25.4822 79.8125 20.5606C52.3267 12.2854 24.7247 30.0326 20.4172 57.911C20.1847 58.1094 15.1602 58.103 14.3336 57.9814C13.3132 57.8342 13.3584 58.3654 13.3649 57.015C13.3843 49.9238 19.8424 36.9446 24.3695 31.4342C54.5548 -5.33383 113.046 11.6646 118.561 57.9814L118.555 57.975Z" fill="white"/>
<path d="M20.4172 70.839C25.5966 102.404 60.845 120.125 89.306 103.524C101.17 96.6054 109.636 84.4582 111.483 70.8006L118.555 70.7686C117.405 86.583 106.252 102.173 92.535 109.924C59.2692 128.708 18.2925 107.831 13.3843 70.775L20.4236 70.8326L20.4172 70.839Z" fill="white"/>
<path d="M65.6435 43.9014L47.2636 84.2278C45.6491 85.6486 40.8249 84.503 38.5452 84.855L57.3448 43.991L65.6435 43.9078V43.9014Z" fill="white"/>
<path d="M73.9292 43.9974L92.7417 84.8486L84.456 84.7526C80.7296 75.7862 76.041 67.2166 71.9789 58.4102C71.0941 56.4902 65.482 44.7142 66.2828 43.9014L73.9228 44.0038L73.9292 43.9974Z" fill="white"/>
<path d="M73.3866 84.8551H57.9065L65.9662 64.3687L73.3866 84.8551Z" fill="white"/>
</svg>
