<svg width="128" height="129" viewBox="0 0 128 129" fill="none" xmlns="http://www.w3.org/2000/svg">
<path d="M64 128.5C99.4669 128.5 128 99.9669 128 64.5C128 29.0331 99.4669 0.5 64 0.5C28.5331 0.5 0 29.0331 0 64.5C0 99.9669 28.5331 128.5 64 128.5Z" fill="#2775CA"/>
<path d="M81.6001 74.6331C81.6001 65.3 76.0001 62.1 64.8001 60.7668C56.8001 59.7 55.2001 57.5668 55.2001 53.8331C55.2001 50.0993 57.8669 47.7 63.2001 47.7C68.0001 47.7 70.6669 49.3 72.0001 53.3C72.2669 54.1 73.0669 54.6331 73.8669 54.6331H78.1332C79.2001 54.6331 80.0001 53.8331 80.0001 52.7668V52.5C78.9332 46.6331 74.1332 42.1 68.0001 41.5668V35.1668C68.0001 34.1 67.2001 33.3 65.8669 33.0331H61.8669C60.8001 33.0331 60.0001 33.8331 59.7332 35.1668V41.3C51.7332 42.3668 46.6669 47.7 46.6669 54.3668C46.6669 63.1668 52.0001 66.6331 63.2001 67.9668C70.6669 69.3 73.0669 70.9 73.0669 75.1668C73.0669 79.4337 69.3332 82.3668 64.2669 82.3668C57.3332 82.3668 54.9332 79.4331 54.1332 75.4331C53.8669 74.3668 53.0669 73.8331 52.2669 73.8331H47.7332C46.6669 73.8331 45.8669 74.6331 45.8669 75.7V75.9669C46.9332 82.6331 51.2001 87.4331 60.0001 88.7668V95.1669C60.0001 96.2331 60.8001 97.0331 62.1332 97.3H66.1332C67.2001 97.3 68.0001 96.5 68.2669 95.1669V88.7668C76.2669 87.4331 81.6001 81.8331 81.6001 74.6331Z" fill="white"/>
<path d="M50.4001 102.633C29.6001 95.1669 18.9332 71.9669 26.667 51.4331C30.667 40.2331 39.467 31.7 50.4001 27.7C51.467 27.1669 52.0001 26.3669 52.0001 25.0331V21.3C52.0001 20.2331 51.467 19.4331 50.4001 19.1669C50.1332 19.1669 49.6001 19.1669 49.3332 19.4331C24.0001 27.4331 10.1332 54.3669 18.1332 79.7C22.9332 94.6331 34.4001 106.1 49.3332 110.9C50.4001 111.433 51.467 110.9 51.7332 109.833C52.0001 109.567 52.0001 109.3 52.0001 108.767V105.033C52.0001 104.233 51.2001 103.167 50.4001 102.633ZM78.667 19.4331C77.6001 18.9 76.5332 19.4331 76.267 20.5C76.0001 20.7669 76.0001 21.0331 76.0001 21.5669V25.3C76.0001 26.3669 76.8001 27.4331 77.6001 27.9669C98.4001 35.4331 109.067 58.6331 101.333 79.1669C97.3332 90.3669 88.5332 98.9 77.6001 102.9C76.5332 103.433 76.0001 104.233 76.0001 105.567V109.3C76.0001 110.367 76.5332 111.167 77.6001 111.433C77.867 111.433 78.4001 111.433 78.667 111.167C104 103.167 117.867 76.2331 109.867 50.9C105.067 35.7 93.3332 24.2331 78.667 19.4331Z" fill="white"/>
</svg>
