<svg width="129" height="129" viewBox="0 0 129 129" fill="none" xmlns="http://www.w3.org/2000/svg">
<path d="M64.9004 3.63257C31.4209 3.63257 4.28296 30.7705 4.28296 64.25C4.28296 97.7295 31.4209 124.867 64.9004 124.867C98.3799 124.867 125.518 97.7295 125.518 64.25C125.518 30.7705 98.3799 3.63257 64.9004 3.63257Z" fill="url(#paint0_radial_4177_6275)" fill-opacity="0.7"/>
<path d="M122.135 64.25C122.135 32.6387 96.5117 7.01508 64.9004 7.01508C33.2891 7.01508 7.66547 32.6387 7.66547 64.25C7.66547 95.8613 33.2891 121.485 64.9004 121.485C96.5117 121.485 122.135 95.8613 122.135 64.25ZM128.9 64.25C128.9 99.5977 100.248 128.25 64.9004 128.25C29.5527 128.25 0.900391 99.5977 0.900391 64.25C0.900392 28.9023 29.5527 0.250001 64.9004 0.25C100.248 0.25 128.9 28.9023 128.9 64.25Z" fill="url(#paint1_linear_4177_6275)"/>
<path fill-rule="evenodd" clip-rule="evenodd" d="M55.2016 14.3572C31.7939 18.8646 14.1061 39.4746 14.1061 64.1878C14.1061 88.9011 31.7939 109.511 55.2016 114.018V109.262C34.3741 104.817 18.769 86.321 18.769 64.1878C18.769 42.0547 34.3741 23.5586 55.2016 19.1133V14.3572ZM74.5992 19.1444V14.3883C97.9758 18.9268 115.601 39.5056 115.601 64.1878C115.601 88.87 97.9758 109.449 74.5992 113.987V109.231C95.3646 104.755 110.939 86.2899 110.939 64.1878C110.939 42.0858 95.3646 23.6208 74.5992 19.1444Z" fill="white"/>
<path d="M72.0813 62.5092C75.967 63.2552 78.9513 64.6852 81.0962 66.7679C83.2411 68.8196 84.298 71.4619 84.298 74.6638V79.7308C84.298 83.5854 82.8992 86.694 80.1325 89.0565C77.3659 91.388 73.6977 92.5381 69.1903 92.5381H67.636V100.589H62.2892V92.5381H60.6417C57.6574 92.5381 55.0462 91.8853 52.7459 90.5486C50.4766 89.1809 48.6736 87.2846 47.3991 84.8599C46.1557 82.3731 45.5339 79.5442 45.5339 76.3113H50.8807C50.8807 79.5753 51.7822 82.2487 53.5541 84.3004C55.3882 86.2899 57.8129 87.3157 60.766 87.3157H69.0349C71.9569 87.3157 74.3195 86.6318 76.1224 85.264C77.8943 83.8341 78.7958 82 78.7958 79.7308V74.6638C78.7958 72.8608 78.1119 71.3376 76.7752 70.0631C75.4696 68.7885 73.6977 67.9803 71.4285 67.6073L58.0305 65.2447C54.2691 64.5609 51.3159 63.1309 49.2332 60.986C47.1504 58.81 46.0935 56.1055 46.0935 52.8415V48.5827C46.0935 44.7281 47.4302 41.6816 50.1036 39.4124C52.8391 37.0809 56.4451 35.9308 60.8904 35.9308H62.2271V27.8795H67.5738V35.9308H69.2835C73.5112 35.9308 76.8996 37.2985 79.4797 40.0341C82.0598 42.7075 83.3654 46.2824 83.3654 50.6966H78.0187C78.0187 47.8056 77.2104 45.4741 75.6251 43.7333C74.0397 41.9925 71.9258 41.1221 69.2835 41.1221H60.8593C58.0305 41.1221 55.7612 41.806 54.0826 43.1738C52.4039 44.4794 51.5646 46.2824 51.5646 48.5516V52.8104C51.5646 54.6445 52.1863 56.1988 53.4297 57.4733C54.7354 58.7478 56.4762 59.5871 58.7143 59.9912L72.0813 62.5092Z" fill="white"/>
<defs>
<radialGradient id="paint0_radial_4177_6275" cx="0" cy="0" r="1" gradientUnits="userSpaceOnUse" gradientTransform="translate(65.0197 21.3217) rotate(90) scale(127.81 89.9653)">
<stop offset="0.03125" stop-color="#3A3A3A"/>
<stop offset="1" stop-color="#1C1C1C"/>
</radialGradient>
<linearGradient id="paint1_linear_4177_6275" x1="64.8925" y1="2.51345" x2="64.8925" y2="125.971" gradientUnits="userSpaceOnUse">
<stop stop-color="white"/>
<stop offset="1" stop-color="#111111"/>
</linearGradient>
</defs>
</svg>
