<svg width="129" height="129" viewBox="0 0 129 129" fill="none" xmlns="http://www.w3.org/2000/svg">
<g clip-path="url(#clip0_4177_5720)">
<path fill-rule="evenodd" clip-rule="evenodd" d="M23.6369 10.045L0.297978 58.9156C0.209167 59.0973 0.181023 59.3027 0.217662 59.5015C0.254302 59.7004 0.353803 59.8824 0.501613 60.0208L63.5343 120.233C63.7134 120.404 63.9519 120.5 64.1999 120.5C64.448 120.5 64.6865 120.404 64.8655 120.233L127.898 60.0246C128.046 59.8861 128.146 59.7042 128.182 59.5053C128.219 59.3064 128.191 59.1011 128.102 58.9193L104.763 10.0488C104.688 9.88468 104.567 9.74564 104.414 9.64831C104.262 9.55098 104.084 9.49948 103.903 9.49995H24.5042C24.3223 9.49769 24.1436 9.54796 23.9897 9.64468C23.8358 9.7414 23.7133 9.88045 23.6369 10.045Z" fill="#50AF95"/>
<path fill-rule="evenodd" clip-rule="evenodd" d="M72.2982 63.9342C71.8457 63.9681 69.5076 64.1072 64.2923 64.1072C60.1442 64.1072 57.199 63.9831 56.1657 63.9342C40.1351 63.2313 28.1696 60.4494 28.1696 57.1187C28.1696 53.788 40.1351 51.0099 56.1657 50.2956V61.1637C57.2141 61.2388 60.2158 61.4155 64.364 61.4155C69.3417 61.4155 71.8344 61.2088 72.2831 61.1674V50.3031C88.2798 51.0136 100.219 53.7955 100.219 57.1187C100.219 60.4419 88.2836 63.2237 72.2831 63.9305L72.2982 63.9342ZM72.2982 49.1791V39.4539H94.6227V24.6235H33.8413V39.4539H56.162V49.1753C38.0196 50.0061 24.376 53.5887 24.376 57.8818C24.376 62.1749 38.0196 65.7537 56.162 66.5883V97.7526H72.2944V66.577C90.3954 65.7462 104.016 62.1674 104.016 57.8781C104.016 53.5887 90.4067 50.0099 72.2944 49.1753L72.2982 49.1791Z" fill="white"/>
</g>
<defs>
<clipPath id="clip0_4177_5720">
<rect width="128" height="111" fill="white" transform="translate(0.199951 9.5)"/>
</clipPath>
</defs>
</svg>
