<svg width="129" height="129" viewBox="0 0 129 129" fill="none" xmlns="http://www.w3.org/2000/svg">
<g clip-path="url(#clip0_10_3115)">
<path d="M67.1943 0.5L73.3271 1.1672C101.319 5.0712 123.649 27.3352 127.634 55.3272L128.301 61.62V67.38L127.634 73.6728C123.66 101.583 101.393 123.858 73.4871 127.833L67.1943 128.5H61.4359L55.1431 127.833C27.2407 123.876 4.96547 101.57 0.995871 73.6728L0.328671 67.54C0.395871 65.5752 0.237471 63.5832 0.328671 61.62C1.85507 28.6328 28.4919 2.0888 61.4343 0.5H67.1927H67.1943ZM19.0439 80.5C24.4407 95.9096 37.7463 107.812 53.7255 111.33C88.2759 118.938 118.687 88.4984 111.105 53.9384C106.345 32.2408 86.6039 16.3352 64.3127 16.5V29.3C82.4215 29.2616 97.6343 43.228 99.3431 61.2216C101.036 79.0456 88.8343 95.4584 71.3559 98.9864C55.6919 102.148 40.2071 94.5192 32.8791 80.5016H19.0423L19.0439 80.5ZM48.3175 19.22C44.0135 20.8136 39.7383 22.7912 36.1847 25.7272C38.4407 37.1512 48.0199 46.236 59.4823 48.132C65.3127 49.0968 68.8311 47.8296 74.0599 51.7912C85.7783 60.6728 79.9511 79.5336 65.2007 80.5048C57.3111 81.0248 48.7415 79.924 40.8775 80.4984C40.6391 80.516 40.4151 80.3736 40.4807 80.7368C50.8983 95.9304 72.9607 97.6728 85.5111 84.0216C101.389 66.7512 90.8199 38.4152 67.5911 35.8616C65.6839 35.652 63.7543 35.7944 61.8567 35.5176C53.9031 34.3592 48.0663 27.2232 48.3175 19.22ZM64.3143 54.9C51.4983 54.98 39.4263 47.6984 33.3575 36.5032C32.2695 34.4968 31.5223 32.3624 30.6423 30.2632C28.6103 32.34 26.6663 34.548 24.9927 36.9304C24.4727 37.6712 21.8855 41.604 21.9239 42.1704C29.9655 57.7064 46.7415 67.8632 64.3143 67.7016V54.9016V54.9Z" fill="#113269"/>
</g>
<defs>
<clipPath id="clip0_10_3115">
<rect width="128" height="128" fill="white" transform="translate(0.299927 0.5)"/>
</clipPath>
</defs>
</svg>
