<svg width="129" height="129" viewBox="0 0 129 129" fill="none" xmlns="http://www.w3.org/2000/svg">
<g clip-path="url(#clip0_4179_6341)">
<g clip-path="url(#clip1_4179_6341)">
<path d="M128.4 64.5C128.4 29.1538 99.7461 0.5 64.3999 0.5C29.0537 0.5 0.399902 29.1538 0.399902 64.5C0.399902 99.8462 29.0537 128.5 64.3999 128.5C99.7461 128.5 128.4 99.8462 128.4 64.5Z" fill="#282138"/>
<mask id="mask0_4179_6341" style="mask-type:luminance" maskUnits="userSpaceOnUse" x="7" y="7" width="115" height="115">
<path d="M121.4 7.5H7.3999V121.5H121.4V7.5Z" fill="white"/>
</mask>
<g mask="url(#mask0_4179_6341)">
<path d="M100.363 31.4229L97.2332 34.5531C104.702 42.7212 108.844 53.3885 108.844 64.4566C108.844 75.5247 104.702 86.1921 97.2332 94.3598L100.363 97.4899C108.67 88.4804 113.281 76.6744 113.281 64.4198C113.281 52.1657 108.67 40.3596 100.363 31.3501V31.4229Z" fill="#5A556F"/>
<path d="M34.5299 31.6965C42.6976 24.2273 53.3654 20.0854 64.4331 20.0854C75.5012 20.0854 86.1685 24.2273 94.3366 31.6965L97.4668 28.5663C88.4569 20.2599 76.6513 15.6483 64.3967 15.6483C52.1421 15.6483 40.3365 20.2599 31.3265 28.5663L34.5299 31.6965Z" fill="#5A556F"/>
<path d="M31.6005 94.3926C24.1401 86.2262 20.0036 75.5654 20.0036 64.5048C20.0036 53.4441 24.1401 42.7829 31.6005 34.617L28.4703 31.4868C20.1639 40.4968 15.5522 52.3024 15.5522 64.557C15.5522 76.8115 20.1639 88.6171 28.4703 97.6271L31.6005 94.3926Z" fill="#5A556F"/>
<path d="M94.298 97.2821C86.1299 104.751 75.4626 108.893 64.3945 108.893C53.3264 108.893 42.659 104.751 34.4909 97.2821L31.3607 100.412C40.3707 108.719 52.1763 113.33 64.4309 113.33C76.6854 113.33 88.491 108.719 97.501 100.412L94.298 97.2821Z" fill="#5A556F"/>
<path d="M84.1645 54.0588C83.5384 47.5275 77.9041 45.3361 70.7778 44.6683V35.6746H65.2689V44.5017C63.8185 44.5017 62.3369 44.5017 60.8659 44.5017V35.6746H55.3983V44.731H44.2236V50.6261C44.2236 50.6261 48.293 50.5533 48.2303 50.6261C48.9643 50.5454 49.7005 50.7528 50.2845 51.2045C50.8681 51.6556 51.2539 52.3164 51.3605 53.0469V77.8375C51.3447 78.0954 51.2776 78.347 51.1632 78.5781C51.0483 78.8096 50.8883 79.0152 50.6927 79.1836C50.5007 79.355 50.2762 79.4862 50.0324 79.5686C49.7886 79.651 49.5303 79.6835 49.2738 79.6637C49.3466 79.726 45.2672 79.6637 45.2672 79.6637L44.2236 86.2472H55.2939V95.4501H60.8032V86.3832H65.2062V95.408H70.7256V86.3099C80.0328 85.7465 86.5225 83.4512 87.3363 74.7389C87.9936 67.7275 84.6968 64.5973 79.4278 63.3345C82.6307 61.7591 84.613 58.8376 84.1645 54.0588ZM76.4436 73.6537C76.4436 80.4981 64.716 79.7159 60.9803 79.7159V67.5709C64.716 67.581 76.4436 66.5064 76.4436 73.6537ZM73.8874 56.5423C73.8874 62.8027 64.1004 62.0406 60.9909 62.0406V51.0019C64.1004 51.0019 73.8874 50.021 73.8874 56.5423Z" fill="white"/>
<path d="M64.3895 121.5C53.1171 121.498 42.0981 118.154 32.7259 111.89C23.3538 105.626 16.0497 96.7231 11.7368 86.3083C7.42389 75.8931 6.29599 64.4335 8.49567 53.3772C10.6954 42.3214 16.1239 32.1661 24.0948 24.1949C32.066 16.224 42.2213 10.7955 53.2771 8.59577C64.3334 6.39609 75.793 7.52399 86.2083 11.8369C96.623 16.1498 105.526 23.4539 111.789 32.826C118.054 42.1982 121.398 53.2172 121.4 64.4896C121.401 71.9768 119.928 79.3907 117.063 86.3083C114.199 93.226 109.999 99.5109 104.705 104.805C99.4108 110.099 93.1259 114.299 86.2083 117.163C79.2906 120.028 71.8767 121.502 64.3895 121.5ZM64.3895 11.9448C54.0041 11.9531 43.8541 15.0401 35.2225 20.8157C26.591 26.5911 19.8652 34.796 15.8956 44.3927C11.9259 53.9897 10.8905 64.5483 12.9201 74.7338C14.9498 84.9189 19.9535 94.2739 27.2986 101.616C34.6438 108.958 44.001 113.958 54.1869 115.984C64.3733 118.01 74.931 116.97 84.5267 112.997C94.1221 109.023 102.324 102.294 108.096 93.6605C113.868 85.0267 116.951 74.8754 116.955 64.4896C116.958 57.5869 115.6 50.7512 112.959 44.3734C110.318 37.9959 106.446 32.2012 101.564 27.3216C96.6822 22.4415 90.8858 18.5714 84.5075 15.933C78.1287 13.2946 71.2922 11.9393 64.3895 11.9448Z" fill="white"/>
</g>
</g>
</g>
<defs>
<clipPath id="clip0_4179_6341">
<rect width="128" height="128" fill="white" transform="translate(0.399902 0.5)"/>
</clipPath>
<clipPath id="clip1_4179_6341">
<rect width="128" height="128" fill="white" transform="translate(0.399902 0.5)"/>
</clipPath>
</defs>
</svg>
