<svg width="129" height="128" viewBox="0 0 129 128" fill="none" xmlns="http://www.w3.org/2000/svg">
<path d="M56.0882 2.30987C56.4509 2.0319 56.9249 1.93158 57.3744 2.04717L74.8744 6.54717L75.0599 6.6087C75.4809 6.77795 75.8064 7.13095 75.9378 7.57256L81.4378 26.0726C81.5954 26.6026 81.4488 27.1766 81.056 27.5657L50.6683 57.6546L65.3841 61.5501C65.9161 61.691 66.3287 62.1119 66.4583 62.6468L69.8089 76.47L77.4125 68.4671C77.4253 68.4536 77.4391 68.4401 77.4525 68.4271L98.9525 47.4271L99.1 47.3001C99.4613 47.029 99.9302 46.9329 100.374 47.0472L117.874 51.5472L118.06 51.6087C118.481 51.7779 118.806 52.1309 118.938 52.5726L124.438 71.0726C124.596 71.6054 124.447 72.1825 124.05 72.5716L74.0501 121.572C73.665 121.949 73.1068 122.091 72.5882 121.943L55.0882 116.943C54.59 116.8 54.2004 116.411 54.058 115.912L49.3978 99.6019L33.0882 94.9427C32.5799 94.7975 32.1855 94.3951 32.0501 93.8841L27.9076 78.2347L10.5619 72.9349C10.0622 72.7821 9.6775 72.3803 9.54722 71.8743L5.04722 54.3743C4.91511 53.8606 5.06471 53.3149 5.43979 52.9398L55.9398 2.43975L56.0882 2.30987ZM58.35 114.754L70.7953 118.31L67.1517 105.865L58.35 114.754ZM69.5638 103.428L73.7367 117.678L98.5755 93.3353L83.931 88.9173L69.5638 103.428ZM56.2376 112.621L65.0306 103.742L52.6859 100.19L56.2376 112.621ZM70.0882 80.5335C70.0794 80.5428 70.0699 80.5518 70.0609 80.5608L53.3587 97.262L67.4359 101.312L81.8187 86.7855L77.7728 72.4437L70.0882 80.5335ZM34.7318 92.2913L48.8744 96.3323L45.2679 82.7083L31.1253 78.6673L34.7318 92.2913ZM48.1742 81.9632L51.5736 94.805L66.0658 80.3128L53.181 77.0911L48.1742 81.9632ZM86.2552 86.4847L98.7445 90.2523L94.8197 77.4065L86.2552 86.4847ZM97.2152 74.9817L101.845 90.1321L120.077 72.264L104.89 68.1595L97.2152 74.9817ZM84.225 84.2659L92.7308 75.2493L80.68 71.7054L84.225 84.2659ZM32.2689 75.8733L46.0765 79.8187L51.2308 74.803L47.1976 61.0911L32.2689 75.8733ZM55.7093 74.6312L66.9574 77.4427L64.2591 66.3128L55.7093 74.6312ZM13.8607 70.806L26.8226 74.7659L23.1947 61.7073L13.8607 70.806ZM25.6449 59.3187L29.7611 74.1351L54.7113 49.43L39.932 45.3929L25.6449 59.3187ZM81.3802 68.7835L95.1253 72.8255L102.825 65.9827L99.1781 51.3987L81.3802 68.7835ZM53.6625 72.4378L62.4593 63.8782L50.1908 60.6312L53.6625 72.4378ZM105.742 65.2815L120.796 69.3499L116.304 54.2415L102.066 50.5804L105.742 65.2815ZM11.808 68.6175L20.9642 59.6927L8.60483 56.1614L11.808 68.6175ZM9.36265 53.2581L23.4398 57.2796L37.8138 43.2679L33.7513 28.8694L9.36265 53.2581ZM42.3734 42.9495L54.9359 46.3812L51.7699 33.4603L42.3734 42.9495ZM54.2455 30.9593L57.9789 46.1937L77.0921 27.2679L61.9515 23.1761L54.2455 30.9593ZM40.2445 40.8362L49.6673 31.3187L36.6449 28.0794L40.2445 40.8362ZM37.4369 25.1839L52.1234 28.8382L59.8402 21.0442L56.1869 6.43389L37.4369 25.1839ZM62.7416 20.2815L77.7962 24.3499L73.3041 9.24151L59.0658 5.58038L62.7416 20.2815Z" fill="url(#paint0_linear_4816_7490)"/>
<defs>
<linearGradient id="paint0_linear_4816_7490" x1="118" y1="52.7498" x2="10" y2="70.7498" gradientUnits="userSpaceOnUse">
<stop offset="0.210643" stop-color="#DF8AFC"/>
<stop offset="0.504808" stop-color="#A395FD"/>
<stop offset="0.841993" stop-color="#6ECEFE"/>
</linearGradient>
</defs>
</svg>
