<svg width="129" height="129" viewBox="0 0 129 129" fill="none" xmlns="http://www.w3.org/2000/svg">
<g clip-path="url(#clip0_4177_6039)">
<path d="M36.2219 128.583C69.0896 128.583 69.0896 128.105 74.6626 126.492C81.9453 124.383 54.1001 105.583 36.2219 105.583C18.3439 105.583 3.85098 110.732 3.85098 117.083C3.85098 123.434 18.3447 128.583 36.2219 128.583Z" fill="black"/>
<path d="M111.328 28.5968L112.851 30.2372L111.52 32.0364C68.3441 90.3909 43.4718 116.813 32.919 113.269C26.4911 111.11 20.0451 104.619 13.5987 95.1928C11.3328 91.8795 9.20511 88.3909 7.26996 84.9188C5.9813 82.6069 4.89061 80.4983 4.32426 79.3105C3.60187 77.7956 3.29684 76.8624 3.05486 75.6364C3.04013 75.5615 3.04013 75.5615 3.02609 75.4891C2.92509 74.969 2.89014 74.8044 2.81466 74.5201C1.51546 69.6253 0.850983 64.5543 0.850983 59.3982C0.850983 26.9152 27.1937 0.582764 59.6887 0.582764C69.869 0.582764 79.6794 3.17268 88.3739 8.03446L88.5982 8.17485C95.7167 13.1289 103.288 19.9361 111.328 28.5968ZM85.6232 12.6793C77.7576 8.30647 68.8952 5.97864 59.6887 5.97864C30.1749 5.97864 6.24896 29.8953 6.24896 59.3982C6.24896 64.0861 6.85248 68.6921 8.03206 73.1361C8.14871 73.5759 8.20148 73.824 8.32524 74.4617C8.33821 74.5284 8.33821 74.5284 8.35068 74.5917C8.50688 75.3829 8.67164 75.8869 9.197 76.9888C9.71363 78.0725 10.7518 80.0795 11.9854 82.2926C13.8453 85.6293 15.8892 88.9809 18.0549 92.1477C23.8791 100.664 29.655 106.481 34.6378 108.154C41.2838 110.386 66.3026 83.9116 105.841 30.635C98.6625 23.0611 91.9193 17.0758 85.6232 12.6793Z" fill="black"/>
<path d="M85.5506 12.2635C77.6528 7.90364 68.7544 5.58276 59.5097 5.58276C29.8749 5.58276 5.85098 29.4282 5.85098 58.8427C5.85098 63.517 6.45702 68.1089 7.64144 72.54C7.75857 72.9781 7.81151 73.2255 7.93578 73.8613C7.94884 73.9277 7.94884 73.9277 7.96136 73.9913C8.11816 74.7797 8.2836 75.2827 8.81111 76.3812C9.32986 77.4613 10.3723 79.4623 11.611 81.6688C13.4785 84.996 15.5308 88.3376 17.7053 91.4945C23.5534 99.9855 29.3529 105.785 34.3565 107.453C41.0294 109.678 66.1507 83.283 105.851 30.1658C98.6433 22.6143 91.8726 16.6468 85.5506 12.2635Z" fill="#EC1C79"/>
<path d="M70.3509 128.583C38.0425 128.583 11.851 102.392 11.851 70.0827C11.851 37.7743 38.0425 11.5828 70.3509 11.5828C102.66 11.5828 128.851 37.7743 128.851 70.0827C128.851 102.392 102.66 128.583 70.3509 128.583ZM70.3509 123.216C99.6957 123.216 123.484 99.4275 123.484 70.0827C123.484 40.7384 99.6957 16.9498 70.3509 16.9498C41.0066 16.9498 17.218 40.7384 17.218 70.0827C17.218 99.4275 41.0066 123.216 70.3509 123.216Z" fill="black"/>
<path d="M70.3509 123.583C99.8984 123.583 123.851 99.6298 123.851 70.0828C123.851 40.5354 99.8984 16.5828 70.3509 16.5828C40.8039 16.5828 16.851 40.5354 16.851 70.0828C16.851 99.6298 40.8039 123.583 70.3509 123.583Z" fill="white"/>
<path fill-rule="evenodd" clip-rule="evenodd" d="M30.8831 80.5828L23.851 59.6422H30.0115L33.6778 71.6722L37.7348 59.5828H42.7533L46.8099 71.6722L50.4761 59.6422H56.5164L49.4847 80.5828H44.406L40.1685 68.6126L35.9614 80.5828H30.8831ZM58.8303 80.4343V59.6422H75.7494V64.5432H64.6002V67.6917H74.6974V72.2364H64.6002V75.5334H75.8996V80.4343H58.8303ZM84.0132 80.4343V64.692H77.7024V59.6422H96.1539V64.692H89.8432V80.4343H84.0132ZM98.7084 80.4343V59.6422H104.538V67.4244H112.021V59.6422H117.851V80.4343H112.021V72.5333H104.538V80.4343H98.7084Z" fill="black"/>
<path d="M4.44482 53.1082C3.0211 52.3879 2.44403 50.636 3.1559 49.1954C3.86776 47.7547 5.59895 47.171 7.02264 47.8913L15.2572 52.0575C16.6809 52.7779 17.2579 54.5294 16.5461 55.97C15.8342 57.4106 14.103 57.9944 12.6794 57.2744L4.44482 53.1082Z" fill="black"/>
<path d="M3.52606 67.3322C2.0808 66.6347 1.44994 64.8449 2.11691 63.334C2.78391 61.8231 4.49622 61.1634 5.94144 61.8608L14.1759 65.8336C15.6211 66.531 16.252 68.3208 15.585 69.8317C14.9181 71.3426 13.2058 72.0019 11.7605 71.3049L3.52606 67.3322Z" fill="black"/>
</g>
<defs>
<clipPath id="clip0_4177_6039">
<rect width="128" height="128" fill="white" transform="translate(0.850464 0.375)"/>
</clipPath>
</defs>
</svg>
