<svg width="129" height="129" viewBox="0 0 129 129" fill="none" xmlns="http://www.w3.org/2000/svg">
<g clip-path="url(#clip0_10_3139)">
<path d="M26.8691 58.1L25.8845 59.5769C14.5614 77.3 17.023 100.438 32.2845 115.208C40.6537 124.069 52.4691 128.5 64.2845 128.5C64.2845 128.5 64.2845 128.5 26.8691 58.1Z" fill="#00A3FF"/>
<path opacity="0.6" d="M64.2845 79.2692L26.8691 57.6077C64.2845 128.5 64.2845 128.5 64.2845 128.5C64.2845 113.238 64.2845 95.5154 64.2845 79.2692Z" fill="#00A3FF"/>
<path opacity="0.6" d="M101.7 58.1L102.684 59.5769C114.007 77.3 111.546 100.438 96.2842 115.208C87.4227 124.069 76.0996 128.5 64.2842 128.5C64.2842 128.5 64.2842 128.5 101.7 58.1Z" fill="#00A3FF"/>
<path opacity="0.2" d="M64.2842 79.2692L101.7 57.6077C64.2842 128.5 64.2842 128.5 64.2842 128.5C64.2842 113.238 64.2842 95.5154 64.2842 79.2692Z" fill="#00A3FF"/>
<path opacity="0.2" d="M64.2842 31.5154V68.4385L96.7765 50.2231L64.2842 31.5154Z" fill="#00A3FF"/>
<path opacity="0.6" d="M64.2845 31.5154L31.7922 50.2231L64.2845 68.4385V31.5154Z" fill="#00A3FF"/>
<path d="M64.2845 0.5L31.7922 50.2231L64.2845 31.5154V0.5Z" fill="#00A3FF"/>
<path opacity="0.6" d="M64.2842 31.5154L96.7765 50.2231L64.2842 0.5V31.5154Z" fill="#00A3FF"/>
</g>
<defs>
<clipPath id="clip0_10_3139">
<rect width="128" height="128" fill="white" transform="translate(0.499878 0.5)"/>
</clipPath>
</defs>
</svg>
