<svg width="660" height="136" viewBox="0 0 660 136" fill="none" xmlns="http://www.w3.org/2000/svg">
<g clip-path="url(#clip0_4213_5978)">
<path d="M393.352 56.8696V79.09H387.499V58.4763L383.787 79.09H373.991L370.279 58.6278V79.09H364.395V56.8696H375.492L378.884 77.16L382.246 56.8696H393.342H393.352ZM407.261 79.4942C400.447 79.4942 395.674 75.1693 395.674 67.9747C395.674 60.7802 400.457 56.4553 407.261 56.4553C414.065 56.4553 418.877 60.7802 418.877 67.9747C418.877 75.1693 414.095 79.4942 407.261 79.4942ZM407.261 74.4923C410.302 74.4923 412.244 72.1278 412.244 67.9747C412.244 63.8217 410.302 61.4572 407.261 61.4572C404.219 61.4572 402.308 63.8217 402.308 67.9747C402.308 72.1278 404.219 74.4923 407.261 74.4923ZM430.374 77.0387L434.927 56.8696H441.821L436.118 79.09H424.611L418.907 56.8696H425.802L430.374 77.0387ZM449.676 70.3999V73.8254H459.612V79.09H443.212V56.8696H459.351V62.1342H449.676V65.1454H459.151V70.41H449.676V70.3999ZM475.571 79.09H469.107V56.8696H475.571V79.09ZM495.153 77.1903V56.8696H501.006V79.09H489.909L484.666 58.7693V79.09H478.783V56.8696H489.909L495.153 77.1903ZM504.208 56.8696H513.043C519.857 56.8696 524.55 60.1739 524.55 67.9747C524.55 75.7756 519.857 79.0799 513.043 79.0799H504.208V56.8595V56.8696ZM510.672 73.8254H513.193C516.205 73.8254 517.916 71.7842 517.916 67.9747C517.916 64.1653 516.205 62.1241 513.193 62.1241H510.672V73.8254ZM536.457 79.4942C529.613 79.4942 526.691 76.0181 526.691 70.1978V56.8595H533.145V70.9253C533.145 73.2393 534.306 74.4923 536.447 74.4923C538.588 74.4923 539.749 73.209 539.749 70.8647V56.8595H546.183V70.1372C546.183 75.9878 543.311 79.4942 536.447 79.4942H536.457ZM557.94 79.4942C552.546 79.4942 548.584 76.8063 548.094 72.0672H554.848C555.108 73.9366 556.379 74.8157 558.35 74.8157C560.641 74.8157 561.852 74.1083 561.852 72.9463C561.852 71.7843 560.951 71.37 558.55 70.8445L554.958 70.026C551.046 69.1469 548.644 67.1967 548.644 63.4478C548.644 59.2341 552.617 56.4553 557.86 56.4553C564.153 56.4553 567.105 59.2038 567.685 62.9426H560.961C560.701 61.7401 559.511 61.1338 557.86 61.1338C556.299 61.1338 554.968 61.7199 554.968 62.8011C554.968 63.8823 555.898 64.236 558.56 64.8423L562.122 65.6304C565.894 66.4489 568.206 68.6114 568.206 72.1783C568.206 77.0286 564.123 79.4841 557.95 79.4841L557.94 79.4942ZM569.366 56.8696H588.378V62.1342H582.084V79.09H575.62V62.1342H569.356V56.8696H569.366ZM610.841 79.09H603.597L599.274 71.5821H596.753V79.09H590.289V56.8696H599.764C605.618 56.8696 609.21 59.7899 609.21 64.2663C609.21 66.9845 607.909 69.1469 605.468 70.3797L610.831 79.09H610.841ZM598.744 61.922H595.762V66.5702H598.744C600.595 66.5702 601.585 65.6102 601.585 64.2562C601.585 62.9022 600.605 61.9119 598.744 61.9119V61.922ZM618.736 79.09H612.272V56.8696H618.736V79.09ZM628.411 70.3999V73.8254H638.347V79.09H621.947V56.8696H638.087V62.1342H628.411V65.1454H637.887V70.41H628.411V70.3999ZM649.734 79.4942C644.341 79.4942 640.368 76.8063 639.878 72.0672H646.632C646.892 73.9366 648.163 74.8157 650.134 74.8157C652.425 74.8157 653.636 74.1083 653.636 72.9463C653.636 71.7843 652.736 71.37 650.334 70.8445L646.742 70.026C642.83 69.1469 640.428 67.1967 640.428 63.4478C640.428 59.2341 644.401 56.4553 649.644 56.4553C655.928 56.4553 658.889 59.2038 659.47 62.9426H652.746C652.486 61.7401 651.295 61.1338 649.644 61.1338C648.083 61.1338 646.742 61.7199 646.742 62.8011C646.742 63.8823 647.673 64.236 650.334 64.8423L653.896 65.6304C657.659 66.4489 659.98 68.6114 659.98 72.1783C659.98 77.0286 655.898 79.4841 649.724 79.4841L649.734 79.4942Z" fill="black"/>
<path d="M0 56.8696H19.0112V62.1342H12.7175V79.09H6.2537V62.1342H0V56.8696ZM34.1802 64.8524V56.8696H40.644V79.09H34.1802V70.7637H27.3962V79.09H20.9324V56.8696H27.3962V64.8524H34.1802ZM50.2797 70.3999V73.8254H60.2156V79.09H43.8159V56.8696H59.9554V62.1342H50.2797V65.1454H59.7553V70.41H50.2797V70.3999ZM99.7489 56.8696V79.09H93.8955V58.4763L90.1833 79.09H80.3875L76.6753 58.6278V79.09H70.7918V56.8696H81.8884L85.2804 77.16L88.6424 56.8696H99.7389H99.7489ZM113.657 79.4942C106.853 79.4942 102.06 75.1693 102.06 67.9747C102.06 60.7802 106.843 56.4553 113.657 56.4553C120.471 56.4553 125.274 60.7802 125.274 67.9747C125.274 75.1693 120.491 79.4942 113.657 79.4942ZM113.657 74.4923C116.699 74.4923 118.64 72.1278 118.64 67.9747C118.64 63.8217 116.699 61.4572 113.657 61.4572C110.615 61.4572 108.704 63.8217 108.704 67.9747C108.704 72.1278 110.615 74.4923 113.657 74.4923ZM136.771 77.0387L141.324 56.8696H148.218L142.514 79.09H131.007L125.304 56.8696H132.198L136.771 77.0387ZM157.083 70.3999V73.8254H167.019V79.09H150.619V56.8696H166.759V62.1342H157.083V65.1454H166.558V70.41H157.083V70.3999ZM199.628 56.8696V79.09H193.775V58.4763L190.062 79.09H180.267L176.554 58.6278V79.09H170.671V56.8696H181.767L185.159 77.16L188.521 56.8696H199.618H199.628ZM210.314 70.3999V73.8254H220.25V79.09H203.85V56.8696H219.99V62.1342H210.314V65.1454H219.79V70.41H210.314V70.3999ZM240.282 77.1903V56.8696H246.135V79.09H235.039L229.796 58.7693V79.09H223.912V56.8696H235.039L240.282 77.1903ZM249.077 56.8696H268.078V62.1342H261.795V79.09H255.331V62.1342H249.067V56.8696H249.077Z" fill="black"/>
<path d="M346.645 103.695L346.735 103.644C346.995 103.503 347.225 103.392 347.445 103.321C347.535 103.291 347.625 103.26 347.706 103.24L347.796 103.21C348.516 102.978 349.266 102.856 350.027 102.856C355.79 102.856 359.663 99.2792 359.663 93.954C359.663 89.8009 357.781 87.6486 356.211 86.5674C354.289 85.2538 351.978 84.8799 349.757 84.6778L349.607 84.6576C349.016 84.5767 348.526 84.4555 347.956 84.2534L347.676 84.1523L347.625 84.1321C346.135 83.6168 344.884 82.5659 344.103 81.1714C343.663 80.3833 343.353 79.3526 343.243 78.2714C343.193 77.847 343.173 77.4327 343.143 77.0285C343.123 76.7152 343.093 76.3717 343.063 76.018V68.0049V59.9918C343.093 59.6382 343.123 59.2946 343.143 58.9814C343.173 58.5772 343.203 58.1629 343.243 57.7385C343.363 56.6573 343.663 55.6165 344.103 54.8384C344.884 53.444 346.135 52.3931 347.625 51.8777L347.676 51.8575L347.956 51.7565C348.526 51.5544 349.026 51.423 349.607 51.3523L349.757 51.3321C351.978 51.13 354.289 50.7561 356.211 49.4425C357.791 48.3714 359.663 46.2089 359.663 42.0559C359.663 36.7307 355.79 33.1536 350.027 33.1536C349.266 33.1536 348.516 33.0323 347.796 32.7999L347.706 32.7696C347.625 32.7494 347.545 32.7191 347.445 32.6888C347.235 32.618 346.995 32.5069 346.735 32.3654L346.645 32.3149C345.694 31.8198 344.854 31.0922 344.203 30.2333C341.782 27.02 342.322 22.2405 345.844 19.7345C346.305 19.401 346.815 19.1484 347.335 18.9261L347.455 18.8756C347.826 18.7139 348.096 18.6331 348.306 18.6027L348.716 18.532C349.236 18.4411 349.757 18.4209 350.287 18.4107C353.139 18.3602 355.53 17.4306 357.201 15.733C358.802 14.1061 359.633 11.873 359.603 9.26594V4.33481C359.603 1.95009 357.691 0.0200806 355.33 0.0200806H345.704C343.343 0.0200806 341.432 1.95009 341.432 4.33481V6.11325C341.432 7.30561 341.432 8.48787 341.432 9.68023C341.432 12.0852 340.091 15.3591 337.62 16.1877C336.039 16.7131 334.087 15.925 332.416 16.117C331.046 16.2786 329.705 16.7536 328.544 17.5013C326.193 18.9968 324.612 21.5432 324.302 24.3422C324.182 25.4133 324.252 26.2217 324.302 26.8078C324.352 27.4646 324.372 27.6566 324.142 28.3134C323.691 29.5866 322.751 30.7689 321.46 31.6379C320.179 32.5069 318.708 32.9919 317.318 32.9919H317.177H317.037C315.647 32.9919 314.166 32.517 312.895 31.6379C311.614 30.7689 310.664 29.5866 310.213 28.3134C309.983 27.6667 310.003 27.4646 310.053 26.8078C310.103 26.2217 310.173 25.4235 310.053 24.3422C309.743 21.5533 308.162 19.0069 305.811 17.5013C304.64 16.7536 303.309 16.2786 301.938 16.117C300.268 15.925 298.316 16.7131 296.735 16.1877C294.264 15.3591 292.913 12.0751 292.923 9.68023V6.11325V4.33481C292.923 1.95009 291.012 0.0200806 288.651 0.0200806H279.025C276.664 0.0200806 274.752 1.95009 274.752 4.33481V9.26594C274.732 11.873 275.563 14.1061 277.154 15.733C278.825 17.4306 281.216 18.3602 284.068 18.4107C284.588 18.4107 285.119 18.4512 285.639 18.532L286.039 18.6027C286.249 18.6331 286.519 18.7139 286.89 18.8756L287.01 18.9261C287.53 19.1484 288.05 19.401 288.511 19.7345C292.023 22.2506 292.573 27.02 290.152 30.2333C289.501 31.0922 288.661 31.8198 287.71 32.3149L287.62 32.3654C287.36 32.5069 287.13 32.618 286.91 32.6888C286.82 32.7191 286.73 32.7494 286.649 32.7696L286.559 32.7999C285.839 33.0323 285.089 33.1536 284.328 33.1536C278.565 33.1536 274.692 36.7307 274.692 42.0559C274.692 46.2089 276.574 48.3613 278.144 49.4425C280.066 50.7561 282.387 51.13 284.598 51.3321L284.748 51.3523C285.339 51.4331 285.829 51.5544 286.399 51.7565L286.679 51.8575L286.729 51.8777C288.22 52.3931 289.471 53.444 290.252 54.8384C290.692 55.6266 291.002 56.6573 291.112 57.7385C291.162 58.1629 291.182 58.5772 291.212 58.9814C291.232 59.2946 291.262 59.6382 291.292 59.9918V68.0049V76.018C291.262 76.3717 291.232 76.7152 291.212 77.0285C291.182 77.4327 291.152 77.847 291.112 78.2714C290.992 79.3526 290.692 80.3934 290.252 81.1714C289.471 82.5659 288.22 83.6168 286.729 84.1321L286.679 84.1523L286.399 84.2534C285.829 84.4555 285.329 84.5868 284.748 84.6576L284.598 84.6778C282.377 84.8799 280.066 85.2538 278.144 86.5674C276.564 87.6385 274.692 89.8009 274.692 93.954C274.692 99.2792 278.565 102.856 284.328 102.856C285.089 102.856 285.839 102.978 286.559 103.21L286.649 103.24C286.73 103.26 286.81 103.291 286.91 103.321C287.12 103.392 287.36 103.503 287.62 103.644L287.71 103.695C288.661 104.19 289.501 104.918 290.152 105.777C292.573 108.99 292.033 113.769 288.511 116.275C288.05 116.609 287.54 116.861 287.02 117.084L286.9 117.134C286.529 117.296 286.259 117.377 286.049 117.407L285.639 117.478C285.119 117.569 284.598 117.589 284.068 117.599C281.216 117.65 278.825 118.579 277.154 120.277C275.553 121.904 274.722 124.137 274.752 126.744V131.675C274.752 134.06 276.664 135.99 279.025 135.99H288.651C291.012 135.99 292.923 134.06 292.923 131.675V129.897C292.923 128.704 292.923 127.522 292.923 126.33C292.923 123.925 294.264 120.651 296.735 119.822C298.316 119.297 300.268 120.085 301.938 119.893C303.309 119.731 304.65 119.256 305.811 118.509C308.162 117.013 309.743 114.467 310.053 111.668C310.173 110.596 310.103 109.788 310.053 109.202C310.003 108.545 309.983 108.353 310.213 107.707C310.664 106.433 311.604 105.251 312.895 104.382C314.176 103.513 315.647 103.028 317.037 103.028H317.177H317.318C318.708 103.028 320.189 103.503 321.46 104.382C322.741 105.251 323.691 106.433 324.142 107.707C324.372 108.353 324.352 108.555 324.302 109.202C324.252 109.788 324.182 110.586 324.302 111.668C324.602 114.457 326.193 117.003 328.544 118.509C329.715 119.256 331.046 119.731 332.416 119.893C334.087 120.085 336.039 119.297 337.62 119.822C340.091 120.651 341.442 123.935 341.432 126.33V129.897V131.675C341.432 134.06 343.343 135.99 345.704 135.99H355.33C357.691 135.99 359.603 134.06 359.603 131.675V126.744C359.623 124.137 358.792 121.904 357.201 120.277C355.53 118.579 353.149 117.65 350.287 117.599C349.767 117.599 349.236 117.559 348.716 117.478L348.316 117.407C348.106 117.377 347.836 117.296 347.465 117.134L347.345 117.084C346.825 116.861 346.315 116.609 345.844 116.275C342.322 113.759 341.772 108.99 344.203 105.777C344.854 104.918 345.704 104.19 346.645 103.695ZM340.401 98.4C339.431 99.6833 338.06 100.643 336.539 101.098C334.998 101.553 332.116 101.573 330.736 101.118C328.214 100.31 326.413 97.9655 326.273 95.2979C326.263 95.0756 326.273 94.8432 326.273 94.5805C326.303 93.7923 326.343 92.7212 325.893 91.3671C324.622 87.5981 321.13 85.0517 317.167 85.0314C313.215 85.0517 309.713 87.5981 308.442 91.3671C307.992 92.7212 308.032 93.7923 308.062 94.5805C308.062 94.8533 308.082 95.0857 308.062 95.2979C307.922 97.9655 306.131 100.31 303.599 101.118C302.209 101.563 299.337 101.553 297.796 101.098C296.275 100.643 294.904 99.6833 293.934 98.4C292.943 97.0763 292.413 95.5 292.403 93.8327C292.433 91.4985 293.273 89.6392 294.954 88.1134L295.074 88.0124C295.605 87.5576 296.195 87.1838 296.825 86.8907L297.436 86.6482L297.996 86.4764L298.597 86.3451L298.877 86.3046C299.137 86.2945 299.427 86.2844 299.747 86.2844H299.767C301.628 86.2541 304.17 86.2036 306.121 84.4959L306.181 84.4454C306.281 84.3544 306.401 84.2534 306.541 84.122C306.601 84.0614 306.661 84.0008 306.731 83.9401C308.432 82.2223 309.343 79.8679 309.343 77.4428V68.0049V58.5671C309.343 56.1419 308.422 53.7875 306.731 52.0697C306.671 52.0091 306.611 51.9485 306.541 51.8878C306.401 51.7565 306.281 51.6453 306.181 51.5645L306.121 51.5139C304.17 49.8062 301.618 49.7557 299.767 49.7254H299.747C299.437 49.7254 299.137 49.7153 298.877 49.7052L298.597 49.6648L297.996 49.5334L297.436 49.3616L296.825 49.1191C296.185 48.8261 295.595 48.4522 295.074 47.9975L294.954 47.8964C293.273 46.3807 292.433 44.5113 292.403 42.1772C292.403 40.5099 292.933 38.9335 293.934 37.6098C294.904 36.3265 296.275 35.3665 297.796 34.9118C299.337 34.4571 302.219 34.4369 303.599 34.8916C306.121 35.7 307.922 38.0443 308.062 40.712C308.072 40.9343 308.062 41.1667 308.062 41.4294C308.032 42.2176 307.992 43.2887 308.442 44.6427C309.713 48.4118 313.205 50.9582 317.167 50.9784C321.12 50.9582 324.622 48.4118 325.893 44.6427C326.343 43.2887 326.303 42.2176 326.273 41.4294C326.273 41.1566 326.253 40.9242 326.273 40.712C326.413 38.0443 328.204 35.7 330.736 34.8916C332.126 34.447 334.998 34.4571 336.539 34.9118C338.06 35.3665 339.431 36.3265 340.401 37.6098C341.392 38.9335 341.922 40.5099 341.932 42.1772C341.902 44.5113 341.062 46.3706 339.381 47.8964L339.261 47.9975C338.73 48.4522 338.14 48.8261 337.51 49.1191L336.899 49.3616L336.339 49.5334L335.738 49.6648L335.458 49.7052C335.198 49.7153 334.908 49.7254 334.588 49.7254H334.568C332.707 49.7557 330.165 49.8062 328.214 51.5139L328.154 51.5645C328.054 51.6554 327.934 51.7565 327.794 51.8878C327.734 51.9485 327.674 52.0091 327.604 52.0697C325.903 53.7875 324.992 56.1419 324.992 58.5671V68.0049V77.4428C324.992 79.8679 325.913 82.2223 327.604 83.9401C327.664 84.0008 327.724 84.0614 327.794 84.122C327.934 84.2534 328.054 84.3645 328.154 84.4454L328.214 84.4959C330.165 86.2036 332.717 86.2541 334.568 86.2844H334.588C334.898 86.2844 335.198 86.2945 335.458 86.3046L335.738 86.3451L336.339 86.4764L336.899 86.6482L337.51 86.8907C338.14 87.1838 338.74 87.5576 339.261 88.0124L339.381 88.1134C341.062 89.6291 341.902 91.4985 341.932 93.8327C341.932 95.5 341.402 97.0763 340.401 98.4Z" fill="black"/>
</g>
<defs>
<clipPath id="clip0_4213_5978">
<rect width="660" height="136" fill="white"/>
</clipPath>
</defs>
</svg>
