<svg width="170" height="136" viewBox="0 0 170 136" fill="none" xmlns="http://www.w3.org/2000/svg">
<g clip-path="url(#clip0_4213_5976)">
<path d="M117.937 103.695L118.027 103.645C118.289 103.503 118.521 103.392 118.743 103.321C118.834 103.291 118.924 103.261 119.005 103.24L119.096 103.21C119.822 102.978 120.578 102.856 121.344 102.856C127.15 102.856 131.051 99.2793 131.051 93.9541C131.051 89.801 129.156 87.6487 127.573 86.5675C125.638 85.2539 123.309 84.88 121.071 84.6779L120.92 84.6577C120.326 84.5769 119.832 84.4556 119.257 84.2535L118.975 84.1525L118.924 84.1323C117.422 83.6169 116.162 82.566 115.376 81.1716C114.933 80.3834 114.62 79.3527 114.509 78.2715C114.459 77.8471 114.439 77.4328 114.409 77.0286C114.388 76.7154 114.358 76.3718 114.328 76.0181V68.0051V59.992C114.358 59.6383 114.388 59.2947 114.409 58.9815C114.439 58.5773 114.469 58.163 114.509 57.7386C114.63 56.6574 114.933 55.6166 115.376 54.8385C116.162 53.4441 117.422 52.3932 118.924 51.8778L118.975 51.8576L119.257 51.7566C119.832 51.5545 120.336 51.4231 120.92 51.3524L121.071 51.3322C123.309 51.1301 125.638 50.7562 127.573 49.4426C129.166 48.3715 131.051 46.2091 131.051 42.056C131.051 36.7308 127.15 33.1537 121.344 33.1537C120.578 33.1537 119.822 33.0325 119.096 32.8001L119.005 32.7697C118.924 32.7495 118.844 32.7192 118.743 32.6889C118.531 32.6182 118.289 32.507 118.027 32.3656L117.937 32.315C116.979 31.8199 116.132 31.0924 115.477 30.2334C113.038 27.0201 113.582 22.2406 117.13 19.7346C117.594 19.4011 118.108 19.1485 118.632 18.9262L118.753 18.8757C119.126 18.714 119.398 18.6332 119.61 18.6029L120.023 18.5321C120.547 18.4412 121.071 18.421 121.606 18.4109C124.479 18.3604 126.888 17.4307 128.571 15.7331C130.184 14.1062 131.02 11.8731 130.99 9.26607V4.33494C130.99 1.95022 129.065 0.0202095 126.686 0.0202095H116.989C114.61 0.0202095 112.685 1.95022 112.685 4.33494V6.11338C112.685 7.30574 112.685 8.488 112.685 9.68036C112.685 12.0853 111.334 15.3592 108.844 16.1878C107.252 16.7133 105.286 15.9251 103.603 16.1171C102.222 16.2788 100.871 16.7537 99.7017 17.5014C97.3329 18.997 95.7403 21.5434 95.4278 24.3424C95.3068 25.4135 95.3774 26.2219 95.4278 26.8079C95.4782 27.4647 95.4984 27.6567 95.2665 28.3135C94.8129 29.5867 93.8654 30.769 92.5651 31.638C91.2748 32.507 89.7931 32.9921 88.3919 32.9921H88.2508H88.1097C86.7086 32.9921 85.2167 32.5171 83.9365 31.638C82.6463 30.769 81.6887 29.5867 81.2351 28.3135C81.0033 27.6668 81.0234 27.4647 81.0738 26.8079C81.1242 26.2219 81.1948 25.4236 81.0738 24.3424C80.7613 21.5535 79.1687 19.0071 76.7999 17.5014C75.6205 16.7537 74.2799 16.2788 72.8989 16.1171C71.2155 15.9251 69.2499 16.7133 67.6573 16.1878C65.1675 15.3592 63.8067 12.0752 63.8168 9.68036V6.11338V4.33494C63.8269 1.93001 61.8915 0 59.5126 0H49.8156C47.4367 0 45.5114 1.93001 45.5114 4.31473V9.24586C45.4912 11.8529 46.3279 14.086 47.9306 15.7129C49.614 17.4105 52.0231 18.3401 54.8959 18.3907C55.4201 18.3907 55.9543 18.4311 56.4785 18.5119L56.8817 18.5827C57.0934 18.613 57.3655 18.6938 57.7385 18.8555L57.8595 18.906C58.3836 19.1283 58.9078 19.3809 59.3715 19.7144C62.9096 22.2305 63.464 26.9999 61.0246 30.2132C60.3694 31.0721 59.5227 31.7997 58.5651 32.2948L58.4743 32.3453C58.2123 32.4868 57.9804 32.598 57.7587 32.6687C57.6679 32.699 57.5772 32.7293 57.4966 32.7495L57.4059 32.7798C56.6801 33.0123 55.9241 33.1335 55.158 33.1335C49.3519 33.1335 45.4509 36.7106 45.4509 42.0358C45.4509 46.1889 47.346 48.3412 48.9285 49.4224C50.8639 50.736 53.2025 51.1099 55.4302 51.312L55.5814 51.3322C56.1761 51.413 56.67 51.5343 57.2446 51.7364L57.5268 51.8374L57.5772 51.8576C59.0792 52.373 60.3392 53.4239 61.1254 54.8183C61.5689 55.6065 61.8814 56.6372 61.9923 57.7184C62.0427 58.1428 62.0628 58.5571 62.0931 58.9613C62.1132 59.2745 62.1435 59.6181 62.1737 59.9718V67.9848V75.9979C62.1435 76.3516 62.1132 76.6951 62.0931 77.0084C62.0628 77.4126 62.0326 77.8269 61.9923 78.2513C61.8713 79.3325 61.5689 80.3733 61.1254 81.1513C60.3392 82.5458 59.0792 83.5967 57.5772 84.112L57.5268 84.1323L57.2446 84.2333C56.67 84.4354 56.166 84.5668 55.5814 84.6375L55.4302 84.6577C53.1924 84.8598 50.8639 85.2337 48.9285 86.5473C47.3359 87.6184 45.4509 89.7808 45.4509 93.9339C45.4509 99.2591 49.3519 102.836 55.158 102.836C55.9241 102.836 56.6801 102.957 57.4059 103.19L57.4966 103.22C57.5772 103.24 57.6579 103.271 57.7587 103.301C57.9703 103.372 58.2123 103.483 58.4743 103.624L58.5651 103.675C59.5227 104.17 60.3694 104.898 61.0246 105.756C63.464 108.97 62.9197 113.749 59.3715 116.255C58.9078 116.589 58.3937 116.841 57.8695 117.064L57.7486 117.114C57.3756 117.276 57.1035 117.357 56.8918 117.387L56.4785 117.458C55.9543 117.549 55.4302 117.569 54.8959 117.579C52.0231 117.63 49.614 118.559 47.9306 120.257C46.3178 121.884 45.4812 124.117 45.5114 126.724V131.655C45.5114 134.04 47.4367 135.97 49.8156 135.97H59.5126C61.8915 135.97 63.8168 134.04 63.8168 131.655V129.877C63.8168 128.684 63.8168 127.502 63.8168 126.31C63.8168 123.905 65.1675 120.631 67.6573 119.802C69.2499 119.277 71.2155 120.065 72.8989 119.873C74.2799 119.711 75.6306 119.236 76.7999 118.488C79.1687 116.993 80.7613 114.447 81.0738 111.648C81.1948 110.576 81.1242 109.768 81.0738 109.182C81.0234 108.525 81.0033 108.333 81.2351 107.686C81.6887 106.413 82.6362 105.231 83.9365 104.362C85.2268 103.493 86.7086 103.008 88.1097 103.008H88.2508H88.3919C89.7931 103.008 91.2849 103.483 92.5651 104.362C93.8553 105.231 94.8129 106.413 95.2665 107.686C95.4984 108.333 95.4782 108.535 95.4278 109.182C95.3774 109.768 95.3068 110.566 95.4278 111.648C95.7302 114.436 97.3329 116.983 99.7017 118.488C100.881 119.236 102.222 119.711 103.603 119.873C105.286 120.065 107.252 119.277 108.844 119.802C111.334 120.631 112.695 123.915 112.685 126.31V129.877V131.655C112.685 134.04 114.61 135.97 116.989 135.97H126.686C129.065 135.97 130.99 134.04 130.99 131.655V126.724C131.01 124.117 130.174 121.884 128.571 120.257C126.888 118.559 124.489 117.63 121.606 117.579C121.082 117.579 120.547 117.539 120.023 117.458L119.62 117.387C119.408 117.357 119.136 117.276 118.763 117.114L118.642 117.064C118.118 116.841 117.604 116.589 117.13 116.255C113.582 113.739 113.028 108.97 115.477 105.756C116.132 104.898 116.989 104.17 117.937 103.675V103.695ZM111.647 98.4002C110.669 99.6835 109.288 100.643 107.756 101.098C106.203 101.553 103.3 101.573 101.909 101.118C99.3691 100.31 97.5547 97.9657 97.4136 95.298C97.4035 95.0757 97.4136 94.8433 97.4136 94.5806C97.4438 93.7924 97.4841 92.7213 97.0305 91.3673C95.7504 87.5982 92.2324 85.0518 88.2407 85.0316C84.2591 85.0518 80.7311 87.5982 79.4509 91.3673C78.9973 92.7213 79.0377 93.7924 79.0679 94.5806C79.0679 94.8534 79.0881 95.0858 79.0679 95.298C78.9268 97.9657 77.1224 100.31 74.5722 101.118C73.1711 101.563 70.2781 101.553 68.7258 101.098C67.1936 100.643 65.8126 99.6835 64.8349 98.4002C63.8369 97.0764 63.3027 95.5001 63.2926 93.8328C63.3229 91.4986 64.1696 89.6393 65.863 88.1135L65.984 88.0125C66.5182 87.5578 67.1129 87.1839 67.748 86.8908L68.3629 86.6483L68.9274 86.4766L69.5322 86.3452L69.8144 86.3048C70.0765 86.2947 70.3688 86.2846 70.6914 86.2846H70.7115C72.5864 86.2542 75.1467 86.2037 77.1124 84.496L77.1728 84.4455C77.2736 84.3546 77.3946 84.2535 77.5357 84.1221C77.5962 84.0615 77.6567 84.0009 77.7272 83.9403C79.4408 82.2225 80.3581 79.868 80.3581 77.4429V68.0051V58.5672C80.3581 56.1421 79.4308 53.7876 77.7272 52.0698C77.6668 52.0092 77.6063 51.9486 77.5357 51.888C77.3946 51.7566 77.2736 51.6454 77.1728 51.5646L77.1124 51.5141C75.1467 49.8064 72.5763 49.7558 70.7115 49.7255H70.6914C70.3789 49.7255 70.0765 49.7154 69.8144 49.7053L69.5322 49.6649L68.9274 49.5335L68.3629 49.3618L67.748 49.1193C67.1029 48.8262 66.5081 48.4523 65.984 47.9976L65.863 47.8966C64.1696 46.3809 63.3229 44.5115 63.2926 42.1773C63.2926 40.51 63.8269 38.9337 64.8349 37.6099C65.8126 36.3266 67.1936 35.3667 68.7258 34.912C70.2781 34.4572 73.1811 34.437 74.5722 34.8917C77.1124 35.7001 78.9268 38.0444 79.0679 40.7121C79.078 40.9344 79.0679 41.1668 79.0679 41.4295C79.0377 42.2177 78.9973 43.2888 79.4509 44.6428C80.7311 48.4119 84.249 50.9583 88.2407 50.9785C92.2224 50.9583 95.7504 48.4119 97.0305 44.6428C97.4841 43.2888 97.4438 42.2177 97.4136 41.4295C97.4136 41.1567 97.3934 40.9243 97.4136 40.7121C97.5547 38.0444 99.359 35.7001 101.909 34.8917C103.31 34.4471 106.203 34.4572 107.756 34.912C109.288 35.3667 110.669 36.3266 111.647 37.6099C112.645 38.9337 113.179 40.51 113.189 42.1773C113.159 44.5115 112.312 46.3708 110.618 47.8966L110.497 47.9976C109.963 48.4523 109.369 48.8262 108.733 49.1193L108.119 49.3618L107.554 49.5335L106.949 49.6649L106.667 49.7053C106.405 49.7154 106.113 49.7255 105.79 49.7255H105.77C103.895 49.7558 101.335 49.8064 99.3691 51.5141L99.3086 51.5646C99.2078 51.6555 99.0869 51.7566 98.9457 51.888C98.8853 51.9486 98.8248 52.0092 98.7542 52.0698C97.0406 53.7876 96.1233 56.1421 96.1233 58.5672V68.0051V77.4429C96.1233 79.868 97.0507 82.2225 98.7542 83.9403C98.8147 84.0009 98.8752 84.0615 98.9457 84.1221C99.0869 84.2535 99.2078 84.3647 99.3086 84.4455L99.3691 84.496C101.335 86.2037 103.905 86.2542 105.77 86.2846H105.79C106.103 86.2846 106.405 86.2947 106.667 86.3048L106.949 86.3452L107.554 86.4766L108.119 86.6483L108.733 86.8908C109.369 87.1839 109.973 87.5578 110.497 88.0125L110.618 88.1135C112.312 89.6292 113.159 91.4986 113.189 93.8328C113.189 95.5001 112.655 97.0764 111.647 98.4002Z" fill="black"/>
<path d="M158.751 56.8696V79.09H152.854V58.4763L149.114 79.09H139.246L135.506 58.6278V79.09H129.579V56.8696H140.758L144.175 77.16L147.562 56.8696H158.741H158.751ZM170 79.09H163.488V56.8696H170V79.09Z" fill="black"/>
<path d="M0 56.8696H19.1521V62.1342H12.8117V79.09H6.30003V62.1342H0V56.8696ZM46.6706 56.8696V79.09H40.7738V58.4763L37.0341 79.09H27.1657L23.426 58.6278V79.09H17.499V56.8696H28.6777L32.0949 77.16L35.4818 56.8696H46.6605H46.6706Z" fill="black"/>
</g>
<defs>
<clipPath id="clip0_4213_5976">
<rect width="170" height="136" fill="white"/>
</clipPath>
</defs>
</svg>
