<svg width="660" height="136" viewBox="0 0 660 136" fill="none" xmlns="http://www.w3.org/2000/svg">
<g clip-path="url(#clip0_4213_5974)">
<path d="M393.352 56.8696V79.09H387.499V58.4763L383.787 79.09H373.991L370.279 58.6278V79.09H364.395V56.8696H375.492L378.884 77.16L382.246 56.8696H393.342H393.352ZM407.261 79.4942C400.447 79.4942 395.674 75.1693 395.674 67.9747C395.674 60.7802 400.457 56.4553 407.261 56.4553C414.065 56.4553 418.877 60.7802 418.877 67.9747C418.877 75.1693 414.095 79.4942 407.261 79.4942ZM407.261 74.4923C410.302 74.4923 412.244 72.1278 412.244 67.9747C412.244 63.8217 410.302 61.4572 407.261 61.4572C404.219 61.4572 402.308 63.8217 402.308 67.9747C402.308 72.1278 404.219 74.4923 407.261 74.4923ZM430.374 77.0387L434.927 56.8696H441.821L436.118 79.09H424.611L418.907 56.8696H425.802L430.374 77.0387ZM449.676 70.3999V73.8254H459.612V79.09H443.212V56.8696H459.351V62.1342H449.676V65.1454H459.151V70.41H449.676V70.3999ZM475.571 79.09H469.107V56.8696H475.571V79.09ZM495.153 77.1903V56.8696H501.006V79.09H489.909L484.666 58.7693V79.09H478.783V56.8696H489.909L495.153 77.1903ZM504.208 56.8696H513.043C519.857 56.8696 524.55 60.1739 524.55 67.9747C524.55 75.7756 519.857 79.0799 513.043 79.0799H504.208V56.8595V56.8696ZM510.672 73.8254H513.193C516.205 73.8254 517.916 71.7842 517.916 67.9747C517.916 64.1653 516.205 62.1241 513.193 62.1241H510.672V73.8254ZM536.457 79.4942C529.613 79.4942 526.691 76.0181 526.691 70.1978V56.8595H533.145V70.9253C533.145 73.2393 534.306 74.4923 536.447 74.4923C538.588 74.4923 539.749 73.209 539.749 70.8647V56.8595H546.183V70.1372C546.183 75.9878 543.311 79.4942 536.447 79.4942H536.457ZM557.94 79.4942C552.546 79.4942 548.584 76.8063 548.094 72.0672H554.848C555.108 73.9366 556.379 74.8157 558.35 74.8157C560.641 74.8157 561.852 74.1083 561.852 72.9463C561.852 71.7843 560.951 71.37 558.55 70.8445L554.958 70.026C551.046 69.1469 548.644 67.1967 548.644 63.4478C548.644 59.2341 552.617 56.4553 557.86 56.4553C564.153 56.4553 567.105 59.2038 567.685 62.9426H560.961C560.701 61.7401 559.511 61.1338 557.86 61.1338C556.299 61.1338 554.968 61.7199 554.968 62.8011C554.968 63.8823 555.898 64.236 558.56 64.8423L562.122 65.6304C565.894 66.4489 568.206 68.6114 568.206 72.1783C568.206 77.0286 564.123 79.4841 557.95 79.4841L557.94 79.4942ZM569.366 56.8696H588.378V62.1342H582.084V79.09H575.62V62.1342H569.356V56.8696H569.366ZM610.841 79.09H603.597L599.274 71.5821H596.753V79.09H590.289V56.8696H599.764C605.618 56.8696 609.21 59.7899 609.21 64.2663C609.21 66.9845 607.909 69.1469 605.468 70.3797L610.831 79.09H610.841ZM598.744 61.922H595.762V66.5702H598.744C600.595 66.5702 601.585 65.6102 601.585 64.2562C601.585 62.9022 600.605 61.9119 598.744 61.9119V61.922ZM618.736 79.09H612.272V56.8696H618.736V79.09ZM628.411 70.3999V73.8254H638.347V79.09H621.947V56.8696H638.087V62.1342H628.411V65.1454H637.887V70.41H628.411V70.3999ZM649.734 79.4942C644.341 79.4942 640.368 76.8063 639.878 72.0672H646.632C646.892 73.9366 648.163 74.8157 650.134 74.8157C652.425 74.8157 653.636 74.1083 653.636 72.9463C653.636 71.7843 652.736 71.37 650.334 70.8445L646.742 70.026C642.83 69.1469 640.428 67.1967 640.428 63.4478C640.428 59.2341 644.401 56.4553 649.644 56.4553C655.928 56.4553 658.889 59.2038 659.47 62.9426H652.746C652.486 61.7401 651.295 61.1338 649.644 61.1338C648.083 61.1338 646.742 61.7199 646.742 62.8011C646.742 63.8823 647.673 64.236 650.334 64.8423L653.896 65.6304C657.659 66.4489 659.98 68.6114 659.98 72.1783C659.98 77.0286 655.898 79.4841 649.724 79.4841L649.734 79.4942Z" fill="white"/>
<path d="M0 56.8696H19.0112V62.1342H12.7175V79.09H6.2537V62.1342H0V56.8696ZM34.1802 64.8524V56.8696H40.644V79.09H34.1802V70.7637H27.3962V79.09H20.9324V56.8696H27.3962V64.8524H34.1802ZM50.2797 70.3999V73.8254H60.2156V79.09H43.8159V56.8696H59.9554V62.1342H50.2797V65.1454H59.7553V70.41H50.2797V70.3999ZM99.7489 56.8696V79.09H93.8955V58.4763L90.1833 79.09H80.3875L76.6753 58.6278V79.09H70.7918V56.8696H81.8884L85.2804 77.16L88.6424 56.8696H99.7389H99.7489ZM113.657 79.4942C106.853 79.4942 102.06 75.1693 102.06 67.9747C102.06 60.7802 106.843 56.4553 113.657 56.4553C120.471 56.4553 125.274 60.7802 125.274 67.9747C125.274 75.1693 120.491 79.4942 113.657 79.4942ZM113.657 74.4923C116.699 74.4923 118.64 72.1278 118.64 67.9747C118.64 63.8217 116.699 61.4572 113.657 61.4572C110.615 61.4572 108.704 63.8217 108.704 67.9747C108.704 72.1278 110.615 74.4923 113.657 74.4923ZM136.771 77.0387L141.324 56.8696H148.218L142.514 79.09H131.007L125.304 56.8696H132.198L136.771 77.0387ZM157.083 70.3999V73.8254H167.019V79.09H150.619V56.8696H166.759V62.1342H157.083V65.1454H166.558V70.41H157.083V70.3999ZM199.628 56.8696V79.09H193.775V58.4763L190.062 79.09H180.267L176.554 58.6278V79.09H170.671V56.8696H181.767L185.159 77.16L188.521 56.8696H199.618H199.628ZM210.314 70.3999V73.8254H220.25V79.09H203.85V56.8696H219.99V62.1342H210.314V65.1454H219.79V70.41H210.314V70.3999ZM240.282 77.1903V56.8696H246.135V79.09H235.039L229.796 58.7693V79.09H223.912V56.8696H235.039L240.282 77.1903ZM249.077 56.8696H268.078V62.1342H261.795V79.09H255.331V62.1342H249.067V56.8696H249.077Z" fill="white"/>
<path d="M346.645 103.695L346.735 103.645C346.995 103.503 347.225 103.392 347.445 103.321C347.535 103.291 347.625 103.261 347.706 103.24L347.796 103.21C348.516 102.978 349.266 102.856 350.027 102.856C355.79 102.856 359.663 99.2793 359.663 93.9541C359.663 89.801 357.781 87.6487 356.211 86.5675C354.289 85.2539 351.978 84.88 349.757 84.6779L349.607 84.6577C349.016 84.5769 348.526 84.4556 347.956 84.2535L347.676 84.1525L347.625 84.1322C346.135 83.6169 344.884 82.566 344.103 81.1716C343.663 80.3834 343.353 79.3527 343.243 78.2715C343.193 77.8471 343.173 77.4328 343.143 77.0286C343.123 76.7154 343.093 76.3718 343.063 76.0181V68.0051V59.992C343.093 59.6383 343.123 59.2947 343.143 58.9815C343.173 58.5773 343.203 58.163 343.243 57.7386C343.363 56.6574 343.663 55.6166 344.103 54.8385C344.884 53.4441 346.135 52.3932 347.625 51.8778L347.676 51.8576L347.956 51.7566C348.526 51.5545 349.026 51.4231 349.607 51.3524L349.757 51.3322C351.978 51.1301 354.289 50.7562 356.211 49.4426C357.791 48.3715 359.663 46.2091 359.663 42.056C359.663 36.7308 355.79 33.1537 350.027 33.1537C349.266 33.1537 348.516 33.0325 347.796 32.8L347.706 32.7697C347.625 32.7495 347.545 32.7192 347.445 32.6889C347.235 32.6182 346.995 32.507 346.735 32.3655L346.645 32.315C345.694 31.8199 344.854 31.0923 344.203 30.2334C341.782 27.0201 342.322 22.2406 345.844 19.7346C346.305 19.4011 346.815 19.1485 347.335 18.9262L347.455 18.8757C347.826 18.714 348.096 18.6332 348.306 18.6029L348.716 18.5321C349.236 18.4412 349.757 18.421 350.287 18.4109C353.139 18.3603 355.53 17.4307 357.201 15.7331C358.802 14.1062 359.633 11.8731 359.603 9.26606V4.33494C359.603 1.95021 357.691 0.0202026 355.33 0.0202026H345.704C343.343 0.0202026 341.432 1.95021 341.432 4.33494V6.11337C341.432 7.30574 341.432 8.48799 341.432 9.68036C341.432 12.0853 340.091 15.3592 337.62 16.1878C336.039 16.7133 334.087 15.9251 332.416 16.1171C331.046 16.2788 329.705 16.7537 328.544 17.5014C326.193 18.9969 324.612 21.5433 324.302 24.3424C324.182 25.4135 324.252 26.2219 324.302 26.8079C324.352 27.4647 324.372 27.6567 324.142 28.3135C323.691 29.5867 322.751 30.769 321.46 31.638C320.179 32.507 318.708 32.992 317.318 32.992H317.177H317.037C315.647 32.992 314.166 32.5171 312.895 31.638C311.614 30.769 310.664 29.5867 310.213 28.3135C309.983 27.6668 310.003 27.4647 310.053 26.8079C310.103 26.2219 310.173 25.4236 310.053 24.3424C309.743 21.5535 308.162 19.007 305.811 17.5014C304.64 16.7537 303.309 16.2788 301.938 16.1171C300.268 15.9251 298.316 16.7133 296.735 16.1878C294.264 15.3592 292.913 12.0752 292.923 9.68036V6.11337V4.33494C292.923 1.95021 291.012 0.0202026 288.651 0.0202026H279.025C276.664 0.0202026 274.752 1.95021 274.752 4.33494V9.26606C274.732 11.8731 275.563 14.1062 277.154 15.7331C278.825 17.4307 281.216 18.3603 284.068 18.4109C284.588 18.4109 285.119 18.4513 285.639 18.5321L286.039 18.6029C286.249 18.6332 286.519 18.714 286.89 18.8757L287.01 18.9262C287.53 19.1485 288.05 19.4011 288.511 19.7346C292.023 22.2507 292.573 27.0201 290.152 30.2334C289.501 31.0923 288.661 31.8199 287.71 32.315L287.62 32.3655C287.36 32.507 287.13 32.6182 286.91 32.6889C286.82 32.7192 286.73 32.7495 286.649 32.7697L286.559 32.8C285.839 33.0325 285.089 33.1537 284.328 33.1537C278.565 33.1537 274.692 36.7308 274.692 42.056C274.692 46.2091 276.574 48.3614 278.144 49.4426C280.066 50.7562 282.387 51.1301 284.598 51.3322L284.748 51.3524C285.339 51.4332 285.829 51.5545 286.399 51.7566L286.679 51.8576L286.729 51.8778C288.22 52.3932 289.471 53.4441 290.252 54.8385C290.692 55.6267 291.002 56.6574 291.112 57.7386C291.162 58.163 291.182 58.5773 291.212 58.9815C291.232 59.2947 291.262 59.6383 291.292 59.992V68.0051V76.0181C291.262 76.3718 291.232 76.7154 291.212 77.0286C291.182 77.4328 291.152 77.8471 291.112 78.2715C290.992 79.3527 290.692 80.3935 290.252 81.1716C289.471 82.566 288.22 83.6169 286.729 84.1322L286.679 84.1525L286.399 84.2535C285.829 84.4556 285.329 84.587 284.748 84.6577L284.598 84.6779C282.377 84.88 280.066 85.2539 278.144 86.5675C276.564 87.6386 274.692 89.801 274.692 93.9541C274.692 99.2793 278.565 102.856 284.328 102.856C285.089 102.856 285.839 102.978 286.559 103.21L286.649 103.24C286.73 103.261 286.81 103.291 286.91 103.321C287.12 103.392 287.36 103.503 287.62 103.645L287.71 103.695C288.661 104.19 289.501 104.918 290.152 105.777C292.573 108.99 292.033 113.77 288.511 116.275C288.05 116.609 287.54 116.862 287.02 117.084L286.9 117.134C286.529 117.296 286.259 117.377 286.049 117.407L285.639 117.478C285.119 117.569 284.598 117.589 284.068 117.599C281.216 117.65 278.825 118.579 277.154 120.277C275.553 121.904 274.722 124.137 274.752 126.744V131.675C274.752 134.06 276.664 135.99 279.025 135.99H288.651C291.012 135.99 292.923 134.06 292.923 131.675V129.897C292.923 128.704 292.923 127.522 292.923 126.33C292.923 123.925 294.264 120.651 296.735 119.822C298.316 119.297 300.268 120.085 301.938 119.893C303.309 119.731 304.65 119.256 305.811 118.509C308.162 117.013 309.743 114.467 310.053 111.668C310.173 110.597 310.103 109.788 310.053 109.202C310.003 108.545 309.983 108.353 310.213 107.707C310.664 106.433 311.604 105.251 312.895 104.382C314.176 103.513 315.647 103.028 317.037 103.028H317.177H317.318C318.708 103.028 320.189 103.503 321.46 104.382C322.741 105.251 323.691 106.433 324.142 107.707C324.372 108.353 324.352 108.555 324.302 109.202C324.252 109.788 324.182 110.587 324.302 111.668C324.602 114.457 326.193 117.003 328.544 118.509C329.715 119.256 331.046 119.731 332.416 119.893C334.087 120.085 336.039 119.297 337.62 119.822C340.091 120.651 341.442 123.935 341.432 126.33V129.897V131.675C341.432 134.06 343.343 135.99 345.704 135.99H355.33C357.691 135.99 359.603 134.06 359.603 131.675V126.744C359.623 124.137 358.792 121.904 357.201 120.277C355.53 118.579 353.149 117.65 350.287 117.599C349.767 117.599 349.236 117.559 348.716 117.478L348.316 117.407C348.106 117.377 347.836 117.296 347.465 117.134L347.345 117.084C346.825 116.862 346.315 116.609 345.844 116.275C342.322 113.759 341.772 108.99 344.203 105.777C344.854 104.918 345.704 104.19 346.645 103.695ZM340.401 98.4002C339.431 99.6835 338.06 100.643 336.539 101.098C334.998 101.553 332.116 101.573 330.736 101.118C328.214 100.31 326.413 97.9657 326.273 95.298C326.263 95.0757 326.273 94.8433 326.273 94.5806C326.303 93.7924 326.343 92.7213 325.893 91.3673C324.622 87.5982 321.13 85.0518 317.167 85.0316C313.215 85.0518 309.713 87.5982 308.442 91.3673C307.992 92.7213 308.032 93.7924 308.062 94.5806C308.062 94.8534 308.082 95.0858 308.062 95.298C307.922 97.9657 306.131 100.31 303.599 101.118C302.209 101.563 299.337 101.553 297.796 101.098C296.275 100.643 294.904 99.6835 293.934 98.4002C292.943 97.0764 292.413 95.5001 292.403 93.8328C292.433 91.4986 293.273 89.6393 294.954 88.1135L295.074 88.0125C295.605 87.5578 296.195 87.1839 296.825 86.8908L297.436 86.6483L297.996 86.4766L298.597 86.3452L298.877 86.3048C299.137 86.2947 299.427 86.2846 299.747 86.2846H299.767C301.628 86.2542 304.17 86.2037 306.121 84.496L306.181 84.4455C306.281 84.3546 306.401 84.2535 306.541 84.1221C306.601 84.0615 306.661 84.0009 306.731 83.9403C308.432 82.2225 309.343 79.868 309.343 77.4429V68.0051V58.5672C309.343 56.1421 308.422 53.7876 306.731 52.0698C306.671 52.0092 306.611 51.9486 306.541 51.8879C306.401 51.7566 306.281 51.6454 306.181 51.5646L306.121 51.5141C304.17 49.8064 301.618 49.7558 299.767 49.7255H299.747C299.437 49.7255 299.137 49.7154 298.877 49.7053L298.597 49.6649L297.996 49.5335L297.436 49.3618L296.825 49.1192C296.185 48.8262 295.595 48.4523 295.074 47.9976L294.954 47.8966C293.273 46.3809 292.433 44.5115 292.403 42.1773C292.403 40.51 292.933 38.9336 293.934 37.6099C294.904 36.3266 296.275 35.3667 297.796 34.9119C299.337 34.4572 302.219 34.437 303.599 34.8917C306.121 35.7001 307.922 38.0444 308.062 40.7121C308.072 40.9344 308.062 41.1668 308.062 41.4295C308.032 42.2177 307.992 43.2888 308.442 44.6428C309.713 48.4119 313.205 50.9583 317.167 50.9785C321.12 50.9583 324.622 48.4119 325.893 44.6428C326.343 43.2888 326.303 42.2177 326.273 41.4295C326.273 41.1567 326.253 40.9243 326.273 40.7121C326.413 38.0444 328.204 35.7001 330.736 34.8917C332.126 34.4471 334.998 34.4572 336.539 34.9119C338.06 35.3667 339.431 36.3266 340.401 37.6099C341.392 38.9336 341.922 40.51 341.932 42.1773C341.902 44.5115 341.062 46.3707 339.381 47.8966L339.261 47.9976C338.73 48.4523 338.14 48.8262 337.51 49.1192L336.899 49.3618L336.339 49.5335L335.738 49.6649L335.458 49.7053C335.198 49.7154 334.908 49.7255 334.588 49.7255H334.568C332.707 49.7558 330.165 49.8064 328.214 51.5141L328.154 51.5646C328.054 51.6555 327.934 51.7566 327.794 51.8879C327.734 51.9486 327.674 52.0092 327.604 52.0698C325.903 53.7876 324.992 56.1421 324.992 58.5672V68.0051V77.4429C324.992 79.868 325.913 82.2225 327.604 83.9403C327.664 84.0009 327.724 84.0615 327.794 84.1221C327.934 84.2535 328.054 84.3647 328.154 84.4455L328.214 84.496C330.165 86.2037 332.717 86.2542 334.568 86.2846H334.588C334.898 86.2846 335.198 86.2947 335.458 86.3048L335.738 86.3452L336.339 86.4766L336.899 86.6483L337.51 86.8908C338.14 87.1839 338.74 87.5578 339.261 88.0125L339.381 88.1135C341.062 89.6292 341.902 91.4986 341.932 93.8328C341.932 95.5001 341.402 97.0764 340.401 98.4002Z" fill="white"/>
</g>
<defs>
<clipPath id="clip0_4213_5974">
<rect width="660" height="136" fill="white"/>
</clipPath>
</defs>
</svg>
