<svg width="86" height="136" viewBox="0 0 86 136" fill="none" xmlns="http://www.w3.org/2000/svg">
<g clip-path="url(#clip0_4213_5971)">
<path d="M72.8317 103.695L72.9229 103.645C73.1862 103.503 73.4192 103.392 73.642 103.321C73.7332 103.291 73.8244 103.261 73.9054 103.24L73.9966 103.21C74.7259 102.978 75.4856 102.856 76.2555 102.856C82.0901 102.856 86.0103 99.2793 86.0103 93.9541C86.0103 89.801 84.1059 87.6487 82.5155 86.5675C80.5707 85.2539 78.2307 84.88 75.982 84.6779L75.83 84.6577C75.2324 84.5769 74.736 84.4556 74.1587 84.2535L73.875 84.1525L73.8244 84.1323C72.3151 83.6169 71.0489 82.566 70.2588 81.1716C69.8131 80.3834 69.4991 79.3527 69.3876 78.2715C69.337 77.8471 69.3167 77.4328 69.2863 77.0286C69.2661 76.7154 69.2357 76.3718 69.2053 76.0181V68.0051V59.992C69.2357 59.6383 69.2661 59.2947 69.2863 58.9815C69.3167 58.5773 69.3471 58.163 69.3876 57.7386C69.5092 56.6574 69.8131 55.6166 70.2588 54.8385C71.0489 53.4441 72.3151 52.3932 73.8244 51.8778L73.875 51.8576L74.1587 51.7566C74.736 51.5545 75.2425 51.4231 75.83 51.3524L75.982 51.3322C78.2307 51.1301 80.5707 50.7562 82.5155 49.4426C84.116 48.3715 86.0103 46.2091 86.0103 42.056C86.0103 36.7308 82.0901 33.1537 76.2555 33.1537C75.4856 33.1537 74.7259 33.0325 73.9966 32.8001L73.9054 32.7697C73.8244 32.7495 73.7433 32.7192 73.642 32.6889C73.4293 32.6182 73.1862 32.507 72.9229 32.3656L72.8317 32.315C71.8694 31.8199 71.0185 31.0924 70.3601 30.2334C67.9087 27.0201 68.4557 22.2406 72.0213 19.7346C72.4873 19.4011 73.0039 19.1485 73.5306 18.9262L73.6522 18.8757C74.027 18.714 74.3005 18.6332 74.5132 18.6029L74.9285 18.5321C75.4552 18.4412 75.982 18.421 76.5188 18.4109C79.4058 18.3604 81.8267 17.4307 83.5184 15.7331C85.1391 14.1062 85.9799 11.8731 85.9495 9.26607V4.33494C85.9495 1.93001 84.0147 0 81.6241 0H71.8795C69.4889 0 67.5542 1.93001 67.5542 4.31473V6.09317C67.5542 7.28553 67.5542 8.46779 67.5542 9.66015C67.5542 12.0651 66.1968 15.339 63.6948 16.1676C62.0943 16.6931 60.1191 15.9049 58.4274 16.0969C57.0397 16.2586 55.6823 16.7335 54.5073 17.4812C52.1269 18.9767 50.5264 21.5231 50.2124 24.3222C50.0908 25.3933 50.1617 26.2016 50.2124 26.7877C50.263 27.4445 50.2833 27.6365 50.0503 28.2933C49.5945 29.5665 48.6423 30.7488 47.3356 31.6178C46.039 32.4868 44.5499 32.9718 43.1419 32.9718H43.0001H42.8583C41.4503 32.9718 39.9511 32.4969 38.6647 31.6178C37.3681 30.7488 36.4058 29.5665 35.9499 28.2933C35.717 27.6466 35.7372 27.4445 35.7879 26.7877C35.8385 26.2016 35.9094 25.4034 35.7879 24.3222C35.4739 21.5332 33.8734 18.9868 31.4929 17.4812C30.3078 16.7335 28.9605 16.2586 27.5728 16.0969C25.8812 15.9049 23.9059 16.6931 22.3054 16.1676C19.8034 15.339 18.4359 12.055 18.4461 9.66015V6.09317V4.31473C18.4562 1.93001 16.5214 0 14.1309 0H4.37609C1.98551 0 0.0507676 1.93001 0.0507676 4.31473V9.24586C0.0305085 11.8529 0.871262 14.086 2.48186 15.7129C4.1735 17.4105 6.59447 18.3401 9.48139 18.3907C10.0081 18.3907 10.545 18.4311 11.0717 18.5119L11.4769 18.5827C11.6896 18.613 11.9631 18.6938 12.3379 18.8555L12.4595 18.906C12.9862 19.1283 13.513 19.3809 13.9789 19.7144C17.5344 22.2305 18.0915 26.9999 15.6402 30.2132C14.9817 31.0721 14.1309 31.7997 13.1686 32.2948L13.0774 32.3453C12.814 32.4868 12.581 32.598 12.3582 32.6687C12.267 32.699 12.1759 32.7293 12.0948 32.7495L12.0037 32.7798C11.2743 33.0123 10.5146 33.1335 9.74476 33.1335C3.91013 33.1335 -0.0100098 36.7106 -0.0100098 42.0358C-0.0100098 46.1889 1.89435 48.3412 3.48469 49.4224C5.42957 50.736 7.77963 51.1099 10.0183 51.312L10.1702 51.3322C10.7678 51.413 11.2642 51.5343 11.8416 51.7364L12.1252 51.8374L12.1759 51.8576C13.6852 52.373 14.9514 53.4239 15.7415 54.8183C16.1872 55.6065 16.5012 56.6372 16.6126 57.7184C16.6633 58.1428 16.6835 58.5571 16.7139 58.9613C16.7342 59.2745 16.7645 59.6181 16.7949 59.9718V67.9848V75.9979C16.7645 76.3516 16.7342 76.6951 16.7139 77.0084C16.6835 77.4126 16.6531 77.8269 16.6126 78.2513C16.491 79.3325 16.1872 80.3733 15.7415 81.1513C14.9514 82.5458 13.6852 83.5967 12.1759 84.112L12.1252 84.1323L11.8416 84.2333C11.2642 84.4354 10.7577 84.5668 10.1702 84.6375L10.0183 84.6577C7.7695 84.8598 5.42957 85.2337 3.48469 86.5473C1.90448 87.6588 0.000119798 89.8111 0.000119798 93.9642C0.000119798 99.2894 3.92026 102.866 9.75489 102.866C10.5247 102.866 11.2845 102.988 12.0138 103.22L12.1049 103.25C12.186 103.271 12.267 103.301 12.3683 103.331C12.581 103.402 12.8241 103.513 13.0875 103.655L13.1787 103.705C14.141 104.2 14.9919 104.928 15.6503 105.787C18.1017 109 17.5547 113.78 13.989 116.286C13.5231 116.619 13.0065 116.872 12.4797 117.094L12.3582 117.145C11.9834 117.306 11.7099 117.387 11.4972 117.417L11.0819 117.488C10.5551 117.579 10.0284 117.599 9.49152 117.609C6.6046 117.66 4.18363 118.589 2.49199 120.287C0.871262 121.914 0.0305085 124.147 0.0608972 126.754V131.685C0.0608972 134.07 1.99564 136 4.38622 136H14.1309C16.5214 136 18.4562 134.07 18.4562 131.685V129.907C18.4562 128.714 18.4562 127.532 18.4562 126.34C18.4562 123.935 19.8135 120.661 22.3155 119.832C23.916 119.307 25.8913 120.095 27.5829 119.903C28.9707 119.741 30.328 119.267 31.5031 118.519C33.8835 117.023 35.484 114.477 35.798 111.678C35.9196 110.607 35.8486 109.798 35.798 109.212C35.7473 108.555 35.7271 108.363 35.9601 107.717C36.4159 106.444 37.3681 105.261 38.6748 104.392C39.9714 103.523 41.4604 103.038 42.8684 103.038H43.0102H43.1521C44.5601 103.038 46.0592 103.513 47.3457 104.392C48.6423 105.261 49.6046 106.444 50.0604 107.717C50.2934 108.363 50.2731 108.566 50.2225 109.212C50.1718 109.798 50.1009 110.597 50.2225 111.678C50.5264 114.467 52.137 117.013 54.5174 118.519C55.7026 119.267 57.0498 119.741 58.4376 119.903C60.1292 120.095 62.1045 119.307 63.7049 119.832C66.2069 120.661 67.5744 123.945 67.5643 126.34V129.907V131.685C67.5643 134.07 69.4991 136 71.8896 136H81.6343C84.0248 136 85.9596 134.07 85.9596 131.685V126.754C85.9799 124.147 85.1391 121.914 83.5285 120.287C81.8369 118.589 79.426 117.66 76.529 117.609C76.0022 117.609 75.4654 117.569 74.9386 117.488L74.5335 117.417C74.3207 117.387 74.0472 117.306 73.6724 117.145L73.5509 117.094C73.0241 116.872 72.5075 116.619 72.0314 116.286C68.4658 113.77 67.9087 109 70.3702 105.787C71.0286 104.928 71.8896 104.2 72.8418 103.705L72.8317 103.695ZM66.5108 98.4002C65.5283 99.6835 64.1405 100.643 62.6008 101.098C61.0409 101.553 58.1236 101.573 56.7257 101.118C54.173 100.31 52.3497 97.9657 52.2079 95.298C52.1978 95.0757 52.2079 94.8433 52.2079 94.5806C52.2383 93.7924 52.2788 92.7213 51.823 91.3673C50.5365 87.5982 47.0013 85.0518 42.99 85.0316C38.9888 85.0518 35.4435 87.5982 34.157 91.3673C33.7012 92.7213 33.7417 93.7924 33.7721 94.5806C33.7721 94.8534 33.7923 95.0858 33.7721 95.298C33.6303 97.9657 31.8171 100.31 29.2543 101.118C27.8463 101.563 24.9391 101.553 23.3792 101.098C21.8395 100.643 20.4517 99.6835 19.4691 98.4002C18.4663 97.0764 17.9294 95.5001 17.9193 93.8328C17.9497 91.4986 18.8006 89.6393 20.5024 88.1135L20.6239 88.0125C21.1608 87.5578 21.7584 87.1839 22.3966 86.8908L23.0145 86.6483L23.5817 86.4766L24.1895 86.3452L24.4731 86.3048C24.7365 86.2947 25.0303 86.2846 25.3544 86.2846H25.3747C27.2588 86.2542 29.8317 86.2037 31.8069 84.496L31.8677 84.4455C31.969 84.3546 32.0906 84.2535 32.2324 84.1221C32.2932 84.0615 32.3539 84.0009 32.4249 83.9403C34.1469 82.2225 35.0687 79.868 35.0687 77.4429V68.0051V58.5672C35.0687 56.1421 34.1367 53.7876 32.4249 52.0698C32.3641 52.0092 32.3033 51.9486 32.2324 51.888C32.0906 51.7566 31.969 51.6454 31.8677 51.5646L31.8069 51.5141C29.8317 49.8064 27.2486 49.7558 25.3747 49.7255H25.3544C25.0404 49.7255 24.7365 49.7154 24.4731 49.7053L24.1895 49.6649L23.5817 49.5335L23.0145 49.3618L22.3966 49.1193C21.7483 48.8262 21.1507 48.4523 20.6239 47.9976L20.5024 47.8966C18.8006 46.3809 17.9497 44.5115 17.9193 42.1773C17.9193 40.51 18.4562 38.9337 19.4691 37.6099C20.4517 36.3266 21.8395 35.3667 23.3792 34.912C24.9391 34.4572 27.8564 34.437 29.2543 34.8917C31.8069 35.7001 33.6303 38.0444 33.7721 40.7121C33.7822 40.9344 33.7721 41.1668 33.7721 41.4295C33.7417 42.2177 33.7012 43.2888 34.157 44.6428C35.4435 48.4119 38.9787 50.9583 42.99 50.9785C46.9912 50.9583 50.5365 48.4119 51.823 44.6428C52.2788 43.2888 52.2383 42.2177 52.2079 41.4295C52.2079 41.1567 52.1876 40.9243 52.2079 40.7121C52.3497 38.0444 54.1629 35.7001 56.7257 34.8917C58.1337 34.4471 61.0409 34.4572 62.6008 34.912C64.1405 35.3667 65.5283 36.3266 66.5108 37.6099C67.5137 38.9337 68.0505 40.51 68.0607 42.1773C68.0303 44.5115 67.1794 46.3708 65.4776 47.8966L65.3561 47.9976C64.8192 48.4523 64.2215 48.8262 63.5834 49.1193L62.9655 49.3618L62.3982 49.5335L61.7905 49.6649L61.5068 49.7053C61.2435 49.7154 60.9497 49.7255 60.6256 49.7255H60.6053C58.7212 49.7558 56.1483 49.8064 54.173 51.5141L54.1122 51.5646C54.011 51.6555 53.8894 51.7566 53.7476 51.888C53.6868 51.9486 53.626 52.0092 53.5551 52.0698C51.8331 53.7876 50.9113 56.1421 50.9113 58.5672V68.0051V77.4429C50.9113 79.868 51.8432 82.2225 53.5551 83.9403C53.6159 84.0009 53.6767 84.0615 53.7476 84.1221C53.8894 84.2535 54.011 84.3647 54.1122 84.4455L54.173 84.496C56.1483 86.2037 58.7313 86.2542 60.6053 86.2846H60.6256C60.9396 86.2846 61.2435 86.2947 61.5068 86.3048L61.7905 86.3452L62.3982 86.4766L62.9655 86.6483L63.5834 86.8908C64.2215 87.1839 64.8293 87.5578 65.3561 88.0125L65.4776 88.1135C67.1794 89.6292 68.0303 91.4986 68.0607 93.8328C68.0607 95.5001 67.5238 97.0764 66.5108 98.4002Z" fill="white"/>
</g>
<defs>
<clipPath id="clip0_4213_5971">
<rect width="86" height="136" fill="white"/>
</clipPath>
</defs>
</svg>
